<?xml version="1.0" standalone="no"?>
<!DOCTYPE svg PUBLIC "-//W3C//DTD SVG 20010904//EN"
 "http://www.w3.org/TR/2001/REC-SVG-20010904/DTD/svg10.dtd">
<svg version="1.0" xmlns="http://www.w3.org/2000/svg"
 width="1229.000000pt" height="1165.000000pt" viewBox="0 0 1229.000000 1165.000000"
 preserveAspectRatio="xMidYMid meet">

<g transform="translate(0.000000,1165.000000) scale(0.100000,-0.100000)"
fill="#000000" stroke="none">
<path d="M5315 10363 c3 -14 15 -38 26 -51 10 -14 19 -36 19 -49 0 -13 10 -34
23 -46 13 -12 27 -30 30 -40 6 -15 3 -17 -13 -12 -19 6 -19 4 5 -31 27 -40 31
-54 15 -54 -5 0 -10 4 -10 8 0 5 -16 25 -35 45 -20 21 -31 37 -25 37 6 0 8 5
4 11 -3 6 -17 8 -29 5 -13 -3 -25 -1 -27 5 -2 6 -15 9 -28 7 l-25 -4 25 -11
c34 -15 120 -97 120 -114 0 -16 -63 -57 -160 -106 -36 -18 -72 -41 -80 -51 -9
-10 -25 -21 -38 -24 -19 -5 -22 -2 -22 23 0 16 4 37 9 47 5 9 17 44 27 77 9
33 24 71 32 85 l16 25 -20 -20 c-38 -38 -88 -165 -89 -224 0 -13 -6 -26 -12
-28 -9 -3 -13 7 -13 30 0 20 -6 62 -14 94 -8 32 -17 75 -21 96 -3 20 -11 37
-17 37 -6 0 -8 -12 -4 -32 16 -90 26 -237 17 -261 -7 -17 -29 -36 -63 -53 -29
-15 -72 -40 -95 -55 -23 -16 -44 -29 -48 -29 -3 0 -24 -12 -48 -27 -23 -15
-51 -32 -62 -38 -25 -13 -33 -55 -11 -55 8 0 35 10 58 22 38 20 56 23 152 21
96 -2 112 1 145 20 75 46 89 51 106 37 8 -7 15 -18 15 -24 0 -7 18 -23 41 -36
22 -14 55 -35 72 -47 18 -13 48 -31 69 -40 35 -18 36 -19 25 -53 -16 -47 -39
-48 -121 -10 -75 36 -95 35 -44 -1 37 -27 93 -49 124 -49 22 0 35 -26 38 -78
1 -17 -3 -22 -18 -20 -39 6 -48 -34 -40 -182 3 -74 7 -196 8 -270 1 -126 2
-135 22 -145 22 -11 22 -11 3 -45 -10 -19 -23 -53 -30 -75 -6 -22 -36 -84 -67
-139 -32 -54 -67 -119 -80 -144 -13 -25 -43 -68 -68 -96 -24 -28 -44 -55 -44
-61 1 -17 87 83 110 127 35 69 46 87 63 106 9 10 23 33 32 52 8 19 19 42 25
50 17 28 40 83 40 96 0 14 18 29 26 21 3 -3 1 -13 -5 -24 -13 -23 -41 -165
-41 -210 0 -50 24 -90 59 -98 l30 -6 -20 -38 c-20 -38 -135 -161 -151 -161 -4
0 -25 -15 -45 -34 -21 -18 -63 -49 -93 -69 -31 -19 -62 -42 -69 -51 -7 -9 -19
-16 -25 -16 -7 0 -28 -12 -47 -26 -19 -14 -45 -30 -59 -36 -64 -27 -124 -47
-127 -44 -3 2 11 19 30 37 18 19 54 60 79 91 26 32 66 75 91 95 38 32 85 100
75 108 -2 2 -147 -149 -275 -287 -13 -14 -41 -29 -61 -33 -129 -23 -222 -91
-248 -181 -26 -90 3 -157 75 -169 55 -9 128 30 217 117 73 71 111 130 116 183
3 25 13 35 73 68 39 21 75 44 80 51 6 8 36 31 67 53 160 110 208 153 347 311
l28 32 32 -83 c33 -87 40 -132 48 -282 5 -103 -8 -173 -48 -255 -14 -30 -32
-79 -39 -107 -6 -29 -21 -64 -31 -77 -10 -13 -19 -32 -19 -43 -1 -29 -22 -50
-58 -55 -38 -5 -39 -2 -10 29 22 24 19 40 -6 30 -22 -9 -121 -146 -151 -209
-16 -33 -45 -71 -76 -98 -28 -24 -64 -63 -81 -87 -36 -49 -63 -62 -86 -40 -13
14 -13 24 -2 77 l13 61 -34 36 c-19 20 -40 43 -47 51 -7 8 -10 22 -6 31 4 9 9
30 12 48 3 25 0 32 -17 38 -11 3 -34 19 -50 36 -16 16 -32 29 -35 29 -3 0 -26
-15 -50 -34 -48 -36 -156 -91 -203 -102 -37 -9 -53 -22 -53 -45 0 -32 18 -30
96 11 42 22 79 38 82 35 3 -2 -1 -33 -7 -67 -7 -35 -12 -76 -11 -93 1 -16 2
-86 3 -154 2 -82 6 -126 14 -128 6 -2 23 7 38 21 23 22 25 27 11 32 -11 4 -16
18 -16 48 0 65 12 72 46 26 16 -22 32 -40 37 -40 18 0 5 -22 -20 -32 l-28 -12
25 -3 c50 -8 125 -35 140 -51 8 -10 34 -30 58 -46 23 -16 42 -33 42 -39 0 -6
11 -24 24 -42 13 -17 30 -51 36 -75 15 -57 4 -214 -16 -231 -19 -15 -20 -14
-47 64 -13 37 -33 77 -44 90 -11 12 -25 36 -32 53 -17 43 -179 201 -216 210
-16 4 -36 2 -46 -4 -14 -9 -29 -5 -76 19 -32 17 -68 42 -81 56 -13 14 -26 23
-29 19 -13 -13 28 -54 83 -83 33 -17 83 -44 111 -60 71 -38 229 -195 244 -242
7 -20 18 -45 25 -56 18 -25 19 -64 2 -47 -16 16 -28 15 -28 -2 0 -18 48 -76
62 -76 6 0 17 -8 24 -17 12 -16 14 -15 27 15 l14 34 13 -34 c19 -47 83 -129
191 -242 52 -54 97 -106 100 -115 4 -9 24 -32 44 -51 20 -19 49 -53 65 -75 24
-35 26 -42 13 -54 -12 -11 -30 -11 -96 -3 -167 21 -238 48 -378 143 -61 41
-107 105 -136 187 -21 60 -23 199 -4 235 21 39 4 47 -26 12 -25 -28 -25 -33
-20 -120 4 -54 15 -112 28 -145 11 -30 25 -70 31 -89 7 -23 12 -30 18 -21 6 9
9 8 14 -7 11 -36 135 -137 199 -163 34 -14 67 -28 72 -32 6 -3 33 -9 60 -13
28 -3 70 -10 95 -15 109 -21 129 -21 150 0 l20 20 45 -48 c24 -26 58 -68 76
-92 17 -25 57 -72 89 -105 142 -145 275 -324 286 -385 12 -60 57 -144 107
-201 35 -41 34 -50 -5 -36 -55 19 -119 67 -198 147 -41 42 -87 85 -102 95 -16
9 -28 25 -28 34 0 9 -28 54 -62 100 -35 46 -76 105 -93 131 -16 26 -38 55 -47
64 -22 22 -83 148 -98 204 -13 50 -30 55 -30 10 0 -43 91 -222 148 -291 24
-29 46 -64 49 -80 3 -15 18 -38 34 -51 15 -13 40 -47 56 -76 30 -56 137 -162
243 -241 36 -27 70 -53 77 -59 7 -5 20 -10 31 -10 10 0 27 -7 38 -15 10 -8 32
-15 47 -15 19 0 39 -10 56 -29 l27 -29 -41 5 c-22 2 -59 11 -83 20 -24 8 -46
13 -49 9 -15 -15 11 -34 68 -50 113 -31 134 -38 152 -54 25 -22 21 -38 -13
-52 -26 -11 -37 -10 -68 3 -69 29 -109 40 -126 34 -29 -11 -13 -39 29 -53 69
-23 75 -26 75 -40 0 -7 -25 -29 -55 -50 -31 -20 -70 -52 -88 -71 -18 -19 -49
-46 -70 -59 -20 -14 -62 -46 -91 -72 -30 -26 -72 -60 -93 -75 -21 -15 -67 -49
-102 -75 -35 -26 -89 -64 -120 -84 -31 -20 -67 -45 -81 -56 -33 -25 -183 -102
-199 -102 -7 0 -36 -11 -64 -24 -107 -50 -387 -74 -395 -34 -2 9 13 34 32 56
40 44 87 135 106 205 15 56 9 150 -13 198 -26 59 -47 226 -53 439 -8 247 4
368 40 436 14 26 24 50 21 52 -2 2 -15 -4 -29 -15 -34 -24 -45 -84 -56 -281
-4 -86 -13 -170 -19 -185 -13 -34 -15 -89 -2 -68 12 19 17 4 20 -64 1 -33 9
-91 17 -130 8 -38 19 -101 25 -140 5 -38 14 -85 20 -103 26 -79 -8 -187 -95
-307 -69 -94 -82 -105 -103 -84 -13 13 10 76 36 96 13 10 14 12 1 12 -20 0
-80 -76 -80 -100 0 -11 5 -27 11 -37 13 -21 -15 -55 -95 -116 -37 -28 -51 -34
-61 -26 -22 18 -54 194 -56 311 -2 57 0 63 37 102 81 87 96 106 92 117 -2 6
-33 -23 -70 -64 -45 -51 -69 -72 -74 -64 -5 7 -8 50 -7 95 0 81 -8 106 -21 61
-3 -13 -6 -66 -6 -118 l0 -95 -77 -73 c-77 -72 -108 -90 -138 -78 -9 3 -15 0
-15 -9 0 -43 60 -19 151 58 36 32 71 57 77 57 12 0 36 -103 47 -195 9 -85 60
-271 89 -330 14 -27 26 -61 26 -75 0 -14 7 -38 15 -54 8 -15 15 -39 15 -51 0
-13 13 -52 28 -87 16 -35 35 -79 42 -98 39 -101 114 -227 175 -291 35 -38 72
-81 82 -96 21 -32 52 -145 53 -189 0 -17 6 -47 14 -65 7 -19 19 -65 26 -104 7
-38 25 -104 40 -145 16 -41 34 -100 40 -130 18 -87 50 -172 74 -205 13 -16 48
-55 79 -86 33 -34 58 -69 62 -89 4 -18 32 -62 64 -99 l56 -66 1 -135 c0 -74 8
-193 17 -264 11 -80 14 -133 8 -139 -6 -6 -20 -4 -38 5 -15 8 -45 23 -66 33
-20 10 -54 38 -74 63 -36 44 -36 44 -24 94 26 114 6 255 -49 353 -30 53 -49
90 -54 108 -7 22 -46 23 -46 1 0 -9 15 -42 33 -73 89 -150 100 -203 73 -333
-16 -78 -55 -138 -106 -166 -31 -16 -35 -23 -33 -53 16 -221 16 -222 -3 -236
-10 -7 -33 -13 -52 -13 -18 0 -31 -4 -27 -9 3 -6 24 -9 46 -8 35 2 42 -1 50
-20 13 -35 38 -40 60 -12 18 24 18 24 33 4 9 -11 16 -23 16 -27 0 -5 6 -8 13
-8 18 0 47 -32 47 -52 0 -9 7 -22 16 -29 14 -11 18 -10 30 6 8 11 12 25 10 31
-5 12 60 44 88 44 7 0 19 7 26 15 6 8 32 25 56 39 36 20 60 25 135 27 86 3 92
2 109 -21 17 -22 20 -23 44 -10 14 7 26 17 26 22 0 4 11 8 25 8 14 0 25 5 25
10 0 6 -57 10 -152 10 -83 0 -148 3 -144 7 4 4 15 8 24 8 27 0 18 94 -11 117
-20 15 -20 18 -5 35 69 78 59 186 -11 119 l-28 -26 -10 23 c-24 52 -35 182
-29 319 8 156 7 159 -70 248 -26 30 -62 87 -81 126 -27 56 -43 76 -73 93 -66
37 -78 63 -133 283 -7 25 -15 50 -20 54 -4 4 -7 17 -7 28 -1 12 -9 39 -20 61
-11 22 -19 50 -20 63 0 13 -5 32 -10 43 -6 11 -18 84 -27 162 -17 161 -24 177
-112 272 -94 102 -171 208 -177 245 -4 19 -15 51 -25 70 -20 41 -40 87 -64
150 -10 25 -24 59 -31 77 -8 17 -14 42 -14 55 0 13 -11 47 -25 76 -13 28 -27
68 -31 89 -5 37 -4 39 53 80 33 24 78 62 101 84 41 41 43 42 93 36 66 -8 277
17 358 43 162 51 397 191 642 382 147 115 171 134 262 210 105 89 145 111 181
102 41 -10 48 -26 34 -73 -13 -41 -34 -54 -44 -26 -4 10 -14 13 -29 9 -13 -3
-26 -1 -29 5 -4 6 -11 11 -16 11 -15 0 -20 -31 -8 -50 13 -20 12 -24 -28 -155
-27 -89 -33 -117 -27 -131 7 -20 37 -17 58 6 15 17 16 21 2 34 -14 14 -13 22
3 73 36 119 53 142 84 120 15 -11 16 -18 5 -62 -6 -28 -20 -73 -31 -100 -11
-31 -16 -62 -12 -80 4 -24 -1 -38 -26 -69 -31 -40 -36 -66 -12 -74 22 -7 272
254 322 337 59 98 66 104 93 89 12 -6 39 -10 59 -10 35 2 40 -2 68 -46 28 -46
118 -132 138 -132 5 0 15 -6 21 -14 19 -23 121 -54 182 -55 33 -1 39 -6 61
-48 71 -136 113 -211 138 -243 15 -19 34 -48 43 -65 8 -16 39 -57 67 -90 63
-73 128 -179 215 -351 80 -156 87 -165 115 -139 l20 18 -20 22 c-12 12 -38 56
-59 96 -57 112 -101 191 -122 218 -11 13 -19 29 -19 36 0 6 -27 44 -60 83 -33
40 -60 76 -60 80 0 5 -10 17 -21 28 -21 19 -99 130 -99 141 0 3 -11 21 -25 39
-14 18 -25 36 -25 40 0 4 -13 29 -30 56 -16 26 -30 54 -30 62 0 7 15 25 33 39
l33 25 50 -60 c27 -33 56 -68 64 -76 8 -9 19 -23 25 -32 5 -10 56 -86 113
-171 56 -84 107 -169 112 -189 6 -19 23 -61 39 -92 16 -32 32 -72 36 -90 4
-18 11 -37 15 -43 30 -41 70 -229 70 -327 0 -31 4 -38 19 -38 25 0 32 21 25
78 -11 95 -71 305 -109 382 -7 14 -31 66 -54 115 -66 141 -69 146 -117 210
-25 33 -52 74 -61 90 -16 31 -39 60 -110 145 -24 28 -43 57 -43 64 0 8 -15 27
-32 43 -36 32 -98 108 -98 119 0 4 -7 16 -17 26 -9 10 -11 18 -6 18 6 0 16 -7
23 -15 7 -8 20 -15 30 -15 9 0 25 -9 35 -20 10 -11 54 -41 97 -67 43 -25 83
-52 89 -59 6 -8 16 -14 23 -14 6 0 33 -15 61 -33 27 -18 82 -54 121 -80 39
-26 78 -47 87 -47 10 0 17 -5 17 -11 0 -6 22 -33 49 -59 26 -26 51 -53 54 -61
5 -12 7 -12 16 1 19 27 19 27 -111 146 -15 13 -31 24 -35 24 -12 0 -105 61
-127 82 -10 10 -22 18 -27 18 -11 0 -116 67 -123 79 -4 5 -23 15 -44 21 -20 7
-49 24 -64 37 -15 14 -35 31 -45 37 -11 6 -34 20 -52 31 -86 51 -183 146 -167
162 3 3 27 0 53 -6 127 -29 373 -18 418 19 25 20 11 22 -34 4 -33 -13 -65 -15
-173 -11 -73 3 -144 7 -158 10 -71 16 -99 26 -135 50 -22 14 -58 33 -80 40
-66 24 -189 154 -201 214 -5 28 -2 32 65 72 38 24 75 49 82 58 7 8 36 26 63
40 28 14 65 36 81 48 17 13 39 26 51 29 11 3 30 15 41 25 23 21 240 171 248
171 3 0 24 12 46 26 74 46 207 111 253 123 44 11 93 14 69 4 -7 -2 -13 -11
-13 -19 0 -8 -4 -14 -10 -14 -5 0 -10 -5 -10 -11 0 -6 24 3 53 20 39 22 52 36
52 53 0 22 -4 23 -60 22 -33 0 -76 -6 -95 -14 -54 -21 -152 -71 -185 -95 -16
-12 -39 -25 -50 -29 -10 -4 -62 -35 -115 -70 -52 -34 -126 -83 -165 -109 -38
-25 -81 -57 -94 -71 -14 -15 -50 -38 -80 -52 -31 -14 -65 -33 -76 -43 -11 -10
-42 -31 -70 -46 -27 -15 -57 -33 -66 -41 -30 -27 -49 -16 -74 39 -75 170 -64
623 25 992 17 72 35 154 41 183 5 29 18 70 29 90 10 20 24 49 30 63 15 36 35
45 207 95 61 17 87 39 59 50 -8 3 -31 1 -53 -5 -21 -6 -54 -11 -73 -10 -32 0
-33 1 -12 11 25 12 26 16 12 38 -6 10 -10 11 -10 3 0 -7 -4 -13 -10 -13 -18 0
-10 22 10 27 11 3 20 12 20 19 0 8 5 14 10 14 6 0 34 23 62 51 48 48 51 49 69
33 10 -9 19 -23 19 -29 0 -7 7 -15 15 -19 43 -16 14 161 -30 190 -27 18 -52
71 -39 84 5 5 54 26 109 47 73 27 116 38 158 38 51 0 57 2 53 18 -3 14 8 24
51 42 54 24 57 25 117 9 33 -8 65 -20 70 -25 6 -5 19 -9 30 -9 12 0 41 -14 66
-30 25 -16 50 -30 56 -30 17 0 102 -39 109 -49 3 -5 31 -24 62 -42 32 -17 78
-49 104 -70 25 -22 50 -39 56 -39 6 0 16 -7 23 -15 7 -8 47 -41 89 -72 42 -32
82 -63 89 -70 7 -7 19 -13 27 -13 7 0 15 -7 19 -15 3 -8 12 -15 20 -15 9 0 20
-8 25 -18 5 -10 31 -29 58 -42 58 -29 58 -29 51 -35 -6 -6 -86 32 -116 56 -13
10 -30 15 -38 12 -8 -3 -14 0 -14 5 0 19 -52 64 -66 58 -24 -9 -16 -20 59 -89
117 -108 133 -159 129 -402 -2 -93 -5 -188 -7 -210 -15 -218 -21 -246 -80
-370 -18 -38 -49 -104 -69 -145 -19 -41 -59 -113 -88 -160 -84 -134 -179 -358
-204 -480 -4 -19 -13 -51 -22 -70 -25 -60 -29 -72 -52 -169 -20 -84 -22 -110
-16 -230 6 -127 16 -187 60 -341 9 -30 20 -91 26 -135 12 -90 37 -200 52 -230
6 -11 21 -31 34 -45 13 -14 29 -52 37 -87 14 -61 14 -62 -14 -113 -15 -28 -41
-66 -58 -85 -16 -18 -32 -42 -35 -52 -14 -43 -104 -78 -148 -59 -26 12 -22
-11 5 -28 18 -11 34 -12 87 -3 61 10 69 15 123 72 33 33 63 69 68 80 6 11 17
31 25 45 17 29 12 128 -11 208 -13 46 -27 260 -16 245 18 -24 84 -73 92 -68 5
4 9 1 9 -4 0 -6 -7 -11 -15 -11 -10 0 -15 -10 -15 -26 0 -25 2 -26 34 -21 28
4 43 0 75 -24 23 -16 41 -34 41 -39 0 -6 8 -10 17 -10 36 0 -13 -31 -54 -34
-23 -2 -45 -6 -51 -10 -19 -12 0 -47 42 -75 97 -67 156 -146 156 -209 0 -52
-21 -98 -54 -115 -82 -42 -136 -56 -136 -36 0 5 9 13 20 19 11 6 20 15 20 20
0 16 -19 11 -37 -10 -10 -11 -23 -20 -30 -20 -15 0 -35 -35 -26 -44 12 -11 88
-5 113 9 26 15 80 20 80 8 0 -5 -28 -37 -63 -73 -34 -36 -77 -92 -95 -124 -19
-32 -54 -80 -78 -106 -25 -26 -44 -52 -43 -56 4 -22 -2 -33 -21 -39 -11 -3
-20 -13 -20 -21 0 -8 9 -14 20 -14 19 0 20 -7 20 -111 0 -98 4 -122 31 -202
17 -51 44 -119 60 -151 28 -57 28 -60 14 -103 -27 -80 -17 -228 28 -407 16
-62 31 -79 60 -70 12 4 29 -4 47 -21 25 -24 32 -26 76 -20 60 9 81 26 95 77
13 50 72 116 112 126 21 5 33 16 37 31 5 21 33 41 155 107 27 15 54 32 60 39
5 6 36 29 68 50 70 47 75 54 52 71 -15 11 -22 10 -43 -6 -13 -11 -30 -20 -38
-20 -7 0 -14 -4 -16 -10 -1 -5 -25 -14 -53 -19 -87 -16 -71 6 25 36 89 28 148
83 106 99 -8 3 -33 -4 -57 -15 -23 -12 -48 -21 -55 -21 -6 0 -17 -6 -23 -14
-7 -8 -27 -18 -44 -22 -18 -3 -34 -10 -37 -14 -6 -8 -103 -40 -124 -40 -21 0
-20 16 2 24 9 3 28 13 42 21 14 8 36 15 50 15 35 2 164 72 168 93 6 29 -27 31
-82 4 -28 -14 -65 -29 -81 -33 -17 -4 -59 -20 -93 -36 -35 -15 -73 -28 -83
-28 -11 0 -28 -5 -38 -12 -16 -10 -27 -6 -74 30 -37 27 -56 50 -60 69 -3 15
-10 46 -16 67 -7 30 -7 44 4 59 9 13 11 27 5 43 -5 12 -6 38 -3 57 4 29 2 36
-14 41 -20 6 -20 7 -2 72 17 62 61 178 81 217 7 13 13 15 28 7 33 -17 53 14
46 71 -4 28 -2 57 5 72 9 19 9 34 0 58 -8 24 -8 48 0 93 22 112 25 121 50 133
72 34 116 45 125 32 10 -16 22 0 17 22 -5 19 -11 21 -52 16 -25 -3 -56 -9 -68
-12 -20 -6 -23 -4 -23 21 0 16 9 44 20 62 11 18 20 37 20 42 0 11 29 80 61
146 11 23 33 57 49 75 26 32 31 34 96 34 47 1 69 5 72 14 3 10 -8 12 -44 11
-87 -4 -85 -5 -64 38 24 49 96 116 144 133 33 12 37 17 32 40 -6 30 25 79 88
138 20 19 36 39 36 45 0 5 7 18 16 27 15 17 15 20 0 44 -9 13 -29 27 -44 31
-15 3 -47 12 -72 19 -25 8 -63 18 -85 24 -22 6 -50 13 -62 16 -13 4 -23 13
-23 21 0 9 -11 14 -34 14 -19 0 -37 4 -40 9 -3 4 -20 11 -37 15 -29 6 -58 24
-115 73 l-26 23 28 10 c44 15 59 26 62 44 4 20 -11 20 -74 1 -56 -17 -58 -16
-97 57 -32 57 -42 124 -21 132 9 4 14 -1 14 -14 0 -27 25 -25 44 2 9 13 33 27
53 33 20 6 38 16 41 23 5 17 -37 15 -81 -3 -20 -8 -54 -15 -75 -15 -59 0 -67
23 -66 199 0 124 4 156 23 214 13 37 33 80 45 95 12 15 28 41 35 59 7 18 19
38 27 44 8 6 14 19 14 29 0 10 6 22 13 28 13 11 89 159 185 362 33 69 76 183
97 253 43 148 42 177 -6 271 -41 78 -33 95 52 124 35 12 102 36 149 53 111 42
302 77 276 52 -8 -8 -12 -9 -58 -11 -16 -1 -39 -16 -60 -37 -40 -43 -173 -120
-223 -129 -30 -6 -36 -11 -33 -29 3 -25 12 -26 108 -4 36 8 91 18 122 22 56 7
57 7 76 -24 21 -34 99 -106 146 -133 176 -103 382 -131 402 -54 8 34 -12 91
-39 110 -12 8 -41 33 -65 54 -71 65 -177 94 -352 96 -98 1 -105 2 -108 22 -5
36 24 49 112 48 79 0 100 -5 226 -54 30 -12 63 -24 73 -27 9 -3 17 -9 17 -14
0 -5 15 -15 33 -23 55 -24 142 -98 164 -139 26 -50 154 -191 206 -226 39 -26
51 -30 63 -21 20 18 18 25 -26 93 -54 83 -182 198 -348 311 -44 30 -72 60
-129 139 -40 53 -41 65 -8 73 28 7 72 -7 200 -61 17 -7 50 -21 75 -31 25 -10
50 -21 55 -25 6 -4 62 -34 126 -67 64 -33 141 -76 170 -96 30 -20 57 -36 62
-36 4 0 26 -12 49 -26 34 -22 45 -24 64 -15 13 6 24 14 24 18 -1 11 -94 106
-185 188 -118 106 -130 118 -170 175 -51 72 -40 83 70 69 44 -5 94 -14 110
-18 17 -5 66 -17 110 -26 44 -9 98 -23 120 -31 23 -8 50 -14 60 -14 22 0 110
-31 121 -43 4 -4 20 -7 37 -7 20 0 38 -10 60 -36 52 -59 153 -120 232 -140 11
-3 29 -9 40 -13 80 -31 130 -43 198 -48 81 -6 88 -2 67 36 -9 17 -139 101
-156 101 -4 0 -26 8 -48 19 -23 10 -77 30 -121 45 -166 57 -180 63 -183 79 -5
26 61 40 157 34 135 -8 262 -59 418 -168 23 -16 44 -29 47 -29 10 0 210 -154
223 -172 7 -9 35 -33 63 -53 48 -35 61 -52 160 -200 47 -70 71 -137 74 -205 1
-33 -1 -35 -29 -33 -16 1 -42 12 -58 24 -31 23 -42 20 -33 -8 9 -27 75 -65
122 -71 37 -4 43 -2 50 19 4 13 6 39 5 58 -2 38 -38 147 -57 176 -8 11 -14 26
-14 34 0 43 -165 239 -250 297 -19 13 -69 50 -110 83 -147 117 -382 261 -426
261 -8 0 -22 4 -32 9 -39 22 -158 38 -222 31 -73 -8 -94 -17 -129 -54 -21 -22
-30 -25 -60 -20 -20 4 -40 10 -45 15 -6 5 -20 9 -33 9 -12 0 -45 9 -73 20 -28
11 -63 20 -78 20 -15 0 -47 7 -72 16 -59 20 -252 55 -317 57 -88 2 -106 -38
-51 -114 17 -24 87 -99 156 -166 114 -113 141 -147 85 -108 -12 9 -60 35 -106
59 -47 24 -95 51 -108 60 -13 9 -30 16 -37 16 -8 0 -33 13 -56 28 -22 15 -57
34 -76 41 -40 16 -117 49 -143 62 -9 5 -51 14 -92 20 -91 12 -120 2 -110 -39
6 -26 60 -103 77 -110 14 -6 8 -32 -8 -32 -8 0 -35 9 -58 20 -24 11 -66 25
-92 32 -63 15 -75 25 -68 52 3 13 0 27 -8 34 -20 16 -236 -21 -338 -58 -47
-18 -98 -36 -115 -41 -16 -5 -49 -18 -72 -29 -76 -36 -70 -41 -156 137 -6 13
-7 26 -4 30 4 3 53 12 110 19 135 16 226 33 248 44 10 6 36 10 59 10 49 0 190
28 206 41 6 5 39 13 75 18 153 24 207 33 254 46 28 8 76 17 108 21 31 3 57 11
57 16 0 9 -52 6 -120 -7 -14 -2 -57 -9 -95 -14 -39 -5 -92 -15 -118 -21 -26
-5 -67 -13 -90 -16 -23 -2 -69 -11 -102 -18 -33 -7 -73 -14 -89 -14 -16 -1
-52 -9 -80 -18 -80 -24 -266 -58 -383 -70 l-61 -7 -36 75 c-20 41 -51 95 -69
119 -18 24 -39 58 -47 74 -26 52 -261 277 -321 307 -113 56 -207 86 -346 112
-97 18 -346 13 -428 -9 -49 -13 -107 -24 -235 -46 -85 -14 -170 -39 -195 -55
-11 -8 -27 -14 -37 -14 -9 0 -21 -7 -26 -16 -8 -15 -17 -15 -88 -3 -43 7 -119
14 -169 15 -125 3 -125 3 -125 13 0 5 16 27 36 48 109 114 188 315 142 361
-22 22 -27 12 -27 -63 0 -62 -4 -81 -26 -114 -14 -23 -25 -44 -25 -48 0 -7
-50 -83 -60 -93 -4 -3 -16 -22 -29 -43 -16 -25 -33 -40 -52 -44 -16 -3 -29
-10 -29 -15 0 -5 -19 -28 -41 -51 -52 -53 -36 -18 33 70 53 69 89 126 118 192
11 23 29 54 40 68 13 17 20 41 20 71 0 33 7 56 26 84 27 38 27 68 -1 68 -28 0
-183 -81 -250 -130 -22 -16 -66 -43 -98 -60 -32 -17 -66 -39 -76 -49 -10 -10
-36 -26 -59 -37 -23 -10 -44 -27 -47 -36 -3 -9 -19 -23 -35 -30 -28 -12 -36
-36 -11 -31 22 5 10 -12 -22 -33 -116 -74 -147 -93 -190 -113 -26 -13 -50 -21
-53 -18 -11 10 38 49 53 42 10 -3 31 6 52 23 20 15 53 38 73 51 20 12 40 32
44 44 4 12 17 33 30 47 13 14 47 52 76 84 29 33 88 93 131 135 52 51 77 82 77
98 0 31 -33 30 -58 -2 -25 -31 -37 -33 -21 -3 18 33 14 163 -5 190 -9 12 -16
33 -16 46 0 14 -13 40 -30 58 -36 41 -47 79 -30 99 11 14 16 10 35 -23 12 -21
25 -50 28 -64 4 -14 22 -47 40 -74 61 -88 70 -112 56 -145 -14 -36 -8 -44 26
-35 22 6 25 11 25 52 0 50 -15 85 -70 159 -68 90 -104 199 -89 263 5 21 12
125 15 232 4 107 11 201 17 208 5 6 17 12 26 12 9 0 43 14 75 30 32 17 63 30
69 30 6 0 18 6 26 14 9 8 51 33 94 55 66 35 80 39 97 28 11 -6 20 -17 20 -23
0 -6 11 -37 26 -69 31 -72 29 -97 -11 -108 -16 -5 -38 -13 -47 -18 -10 -5 -25
-9 -34 -9 -9 0 -30 -6 -47 -14 -18 -7 -51 -21 -74 -31 -23 -10 -51 -28 -63
-40 -31 -33 -60 -95 -60 -130 l0 -30 15 29 c8 15 15 34 15 40 0 45 223 166
307 166 20 0 23 -5 22 -37 0 -21 -9 -51 -20 -68 -28 -44 -32 -55 -24 -63 10
-10 74 63 79 90 2 13 8 41 13 63 l8 39 85 19 c66 15 129 20 280 21 194 1 196
1 290 -31 85 -28 154 -58 270 -118 45 -23 130 -85 130 -94 0 -4 -35 -1 -77 5
-43 7 -78 13 -78 13 0 3 -258 22 -350 26 -38 1 -133 8 -210 15 -152 14 -182
25 -210 81 -17 32 -39 38 -49 13 -4 -9 8 -30 32 -54 43 -46 116 -69 217 -71
214 -3 743 -53 785 -74 47 -24 280 -268 280 -293 0 -5 9 -17 20 -27 11 -10 22
-27 26 -38 4 -11 30 -53 60 -93 29 -39 62 -89 73 -110 88 -168 256 -335 339
-337 39 -1 77 35 67 62 -4 9 -11 41 -17 71 -5 30 -14 59 -19 64 -5 6 -9 16 -9
23 0 7 -13 34 -29 60 -16 27 -36 72 -45 100 -13 47 -45 105 -107 195 -11 15
-19 32 -19 39 0 13 -85 99 -137 139 -18 14 -33 29 -33 33 0 5 4 6 8 3 11 -6
77 14 119 37 37 20 92 86 118 142 13 27 19 62 19 110 0 63 -5 80 -44 160 -36
73 -61 106 -128 173 -46 45 -88 82 -93 82 -6 0 -41 18 -79 41 -38 22 -74 38
-80 34 -5 -3 -22 2 -38 13 -26 19 -71 30 -202 54 -49 8 -80 22 -126 54 -34 23
-84 54 -110 68 -27 15 -56 30 -64 35 -22 12 -115 41 -133 41 -8 0 -20 6 -26
14 -6 8 -37 17 -69 21 -31 4 -61 10 -67 13 -18 12 -221 46 -330 56 -33 2 -86
12 -118 20 -45 13 -109 16 -290 15 -128 0 -267 2 -310 4 l-79 5 -56 53 c-31
30 -58 54 -59 55 -2 0 -3 21 -4 47 -2 28 -7 48 -16 51 -7 3 -13 14 -13 25 0
11 -23 45 -51 75 -42 46 -47 56 -31 56 26 0 89 -73 98 -113 5 -23 8 -27 15
-15 18 33 -19 124 -56 138 -59 23 -169 -1 -205 -45 -15 -19 -46 -20 -57 -2 -4
8 -34 22 -66 32 -53 16 -96 53 -97 82 -1 4 -11 21 -24 37 -20 24 -27 26 -44
17 -11 -6 -23 -11 -27 -11 -3 0 -4 44 -2 97 3 97 3 97 37 122 57 45 120 103
120 113 0 5 14 21 30 35 19 16 30 34 30 51 0 20 10 34 35 51 42 29 44 41 6 41
-40 0 -93 -19 -112 -41 -9 -10 -19 -16 -22 -13 -3 3 -41 -13 -84 -35 -43 -23
-82 -41 -85 -41 -12 0 -92 127 -150 238 -25 48 -54 59 -43 15z m365 -258 c-7
-9 -15 -13 -17 -11 -7 7 7 26 19 26 6 0 6 -6 -2 -15z m-56 -14 c3 -5 -9 -14
-27 -20 l-32 -11 25 20 c29 23 27 22 34 11z m-40 -85 c-34 -30 -44 -32 -44
-11 0 14 60 49 69 40 2 -2 -10 -15 -25 -29z m-72 -58 c-6 -6 -14 -9 -17 -6 -3
3 -3 13 1 22 5 12 10 14 17 7 8 -8 8 -14 -1 -23z m-37 -50 c1 -24 5 -51 9 -61
5 -10 7 -55 4 -100 -5 -94 -33 -167 -72 -185 -30 -13 -80 3 -125 41 -18 15
-39 27 -47 27 -8 0 -31 16 -52 35 -22 19 -41 33 -43 31 -2 -2 -5 9 -6 26 -3
38 20 84 50 99 12 7 53 34 90 61 38 27 89 61 115 74 41 22 47 23 61 9 8 -8 15
-34 16 -57z m65 -48 c0 -5 -4 -10 -10 -10 -5 0 -10 5 -10 10 0 6 5 10 10 10 6
0 10 -4 10 -10z m-23 -127 c-3 -10 -5 -4 -5 12 0 17 2 24 5 18 2 -7 2 -21 0
-30z m73 -85 c23 -55 23 -77 1 -64 -5 3 -14 28 -20 54 -5 26 -13 56 -17 67
-16 45 14 -3 36 -57z m-67 22 c-7 -28 -13 -25 -13 6 0 14 4 23 9 20 5 -3 7
-15 4 -26z m127 -44 c0 -16 -18 -3 -28 19 -17 37 -15 41 8 12 11 -14 20 -28
20 -31z m145 -46 c3 -5 1 -10 -4 -10 -6 0 -11 5 -11 10 0 6 2 10 4 10 3 0 8
-4 11 -10z m-237 -48 c6 -18 -15 -14 -22 4 -4 10 -1 14 6 12 6 -2 14 -10 16
-16z m272 8 c0 -5 -2 -10 -4 -10 -3 0 -8 5 -11 10 -3 6 -1 10 4 10 6 0 11 -4
11 -10z m-410 -28 c0 -5 -6 -17 -14 -28 -19 -25 -31 -12 -14 15 13 21 28 28
28 13z m154 -43 c11 -56 6 -65 -13 -24 -10 22 -16 43 -14 48 9 16 21 5 27 -24z
m-115 -173 c10 -26 8 -37 -16 -93 -26 -61 -43 -79 -43 -48 0 8 6 15 13 15 7 0
5 5 -5 10 -24 15 -22 99 5 180 l22 64 6 -49 c3 -28 11 -63 18 -79z m308 23 l2
-41 -24 24 c-28 28 -25 69 4 61 12 -3 17 -16 18 -44z m413 -28 c15 -28 13 -31
-20 -31 -25 0 -30 4 -30 25 0 31 34 35 50 6z m65 -91 c9 -10 28 -42 41 -70 13
-28 35 -65 49 -84 14 -18 25 -43 25 -55 0 -25 -22 -101 -30 -101 -3 0 -11 14
-18 30 -18 41 -47 41 -39 1 l6 -30 -33 20 c-19 11 -54 37 -78 58 -23 21 -63
50 -88 64 -25 15 -60 39 -77 54 -34 31 -33 33 28 70 19 13 44 31 54 43 26 29
134 29 160 0z m616 11 c30 -5 87 -12 127 -15 41 -3 77 -8 80 -10 4 -2 32 -7
62 -11 122 -16 168 -24 230 -40 36 -9 79 -18 95 -21 33 -7 182 -60 205 -75 8
-5 29 -16 45 -23 17 -8 39 -24 49 -35 11 -12 27 -21 37 -21 25 0 33 -17 12
-24 -10 -3 -61 -3 -113 -1 -108 6 -310 -4 -310 -15 0 -4 71 -7 158 -8 222 -2
332 -13 332 -32 0 -5 9 -11 19 -15 10 -3 22 -16 25 -28 36 -121 36 -125 18
-179 -13 -40 -27 -60 -59 -83 -61 -44 -56 -78 8 -51 46 19 78 66 89 129 4 29
11 63 15 77 3 14 -1 45 -10 69 -25 73 -24 75 51 68 37 -4 76 -12 88 -20 11 -7
41 -19 66 -26 98 -29 193 -87 266 -163 39 -41 75 -85 79 -99 4 -13 13 -31 20
-39 22 -28 55 -148 49 -182 -8 -47 -30 -102 -59 -148 -18 -29 -41 -47 -91 -70
-77 -35 -115 -37 -181 -9 -97 42 -211 79 -267 85 -58 7 -65 11 -182 104 -28
22 -56 40 -62 40 -6 0 -30 13 -54 28 -52 34 -124 65 -232 100 -76 24 -93 26
-286 26 -158 0 -224 -4 -287 -18 -46 -9 -87 -14 -93 -11 -5 3 -10 17 -10 30 0
13 -4 26 -9 29 -5 3 -12 17 -15 31 -4 14 -20 47 -36 74 -17 26 -30 57 -30 67
0 24 -56 94 -75 94 -21 0 -45 29 -39 45 4 10 -1 15 -15 15 -20 0 -151 114
-151 131 0 13 -83 144 -117 183 -24 29 -30 42 -21 48 18 11 512 10 579 -1z
m-928 -113 c18 -12 55 -39 82 -59 28 -20 62 -39 76 -43 19 -4 28 -14 32 -35 6
-28 62 -77 132 -117 23 -13 22 -55 -1 -91 -19 -30 -37 -21 -74 36 -39 62 -71
91 -78 72 -6 -18 -71 55 -78 89 -9 45 -32 74 -62 82 -19 5 -38 21 -51 44 -31
53 -28 56 22 22z m-563 -52 c-7 -7 -10 1 -9 25 0 32 1 33 10 10 6 -16 6 -28
-1 -35z m1050 -90 c0 -6 18 -31 40 -55 36 -39 38 -45 24 -56 -15 -10 -11 -13
24 -18 38 -7 82 -43 82 -70 0 -5 8 -16 18 -23 16 -13 16 -14 -3 -11 -34 6
-109 30 -119 39 -6 4 -17 8 -26 8 -20 0 -58 42 -52 58 2 7 -13 14 -39 18 -39
7 -41 8 -21 17 14 7 24 22 28 46 10 61 14 70 30 64 7 -3 14 -10 14 -17z
m-1006 -150 c-3 -15 -8 -25 -11 -23 -2 3 -1 17 3 31 3 15 8 25 11 23 2 -3 1
-17 -3 -31z m966 -18 c19 -7 41 -19 48 -25 7 -7 25 -16 40 -19 15 -4 36 -12
47 -18 11 -6 25 -11 30 -12 30 -4 76 -18 80 -24 2 -4 -3 -14 -13 -22 -24 -22
-128 -78 -143 -78 -7 0 -22 -8 -33 -18 -17 -15 -137 -62 -158 -62 -3 0 -8 28
-11 63 -4 34 -9 76 -13 94 -5 25 1 44 26 88 34 60 32 59 100 33z m-199 -61 c9
-21 9 -31 0 -40 -8 -8 -11 -7 -11 6 0 10 -9 37 -20 59 -11 23 -20 44 -20 47 1
11 39 -44 51 -72z m-261 -21 c0 -3 -4 -8 -10 -11 -5 -3 -10 -1 -10 4 0 6 5 11
10 11 6 0 10 -2 10 -4z m-555 -36 c-3 -5 -11 -10 -16 -10 -6 0 -7 5 -4 10 3 6
11 10 16 10 6 0 7 -4 4 -10z m875 -119 l0 -58 -53 -26 c-30 -14 -85 -33 -123
-42 -38 -9 -79 -22 -91 -28 -48 -22 -30 2 47 66 43 37 84 67 90 67 6 0 14 8
17 17 4 9 14 24 22 34 9 9 25 29 35 45 l19 27 19 -23 c13 -16 18 -39 18 -79z
m-207 -35 c-15 -20 -127 -105 -171 -130 -18 -11 38 97 57 109 21 12 102 43
119 44 9 1 8 -6 -5 -23z m-455 -32 c-4 -3 -12 5 -18 18 -12 22 -12 22 6 6 10
-10 15 -20 12 -24z m-5 -89 c11 -59 10 -73 -7 -91 -20 -19 -20 -32 -1 -78 30
-71 99 -68 163 6 38 43 45 45 70 21 42 -43 101 -83 160 -109 55 -24 79 -44 53
-44 -5 0 -26 -25 -46 -55 -40 -57 -67 -74 -89 -56 -7 6 -16 9 -20 6 -3 -3 -2
1 4 7 22 26 10 64 -37 115 -63 67 -90 74 -150 37 -25 -16 -51 -38 -57 -49 -6
-11 -21 -33 -33 -48 -13 -16 -23 -36 -23 -45 -1 -35 -29 33 -30 70 0 21 -13
74 -30 120 -16 45 -30 90 -30 101 0 10 10 59 21 109 l22 90 26 -33 c14 -18 29
-51 34 -74z m665 46 c10 -6 14 -47 17 -152 2 -110 0 -140 -8 -128 -14 19 -50
39 -70 39 -9 0 -39 -16 -68 -35 -30 -19 -57 -35 -61 -35 -5 0 -27 12 -51 27
-23 15 -56 34 -73 42 -17 9 -51 34 -74 55 -41 37 -42 40 -24 53 10 7 37 18 59
24 74 20 310 101 320 110 11 11 16 11 33 0z m1827 -291 c11 -5 52 -19 90 -31
72 -23 158 -65 210 -104 49 -37 165 -155 165 -169 0 -7 18 -38 40 -69 22 -30
40 -59 40 -63 0 -4 13 -34 29 -68 16 -34 39 -94 52 -134 13 -41 27 -76 31 -79
5 -2 8 -26 8 -54 0 -43 -3 -49 -20 -49 -86 0 -223 142 -364 377 -16 26 -32 50
-36 53 -4 3 -30 40 -58 82 -62 95 -51 81 -166 210 -53 58 -96 108 -96 111 0 6
51 -3 75 -13z m-2265 -161 c11 -8 8 -9 -13 -4 -20 4 -40 -1 -64 -15 -44 -26
-47 -25 -27 5 12 19 25 25 53 25 20 0 43 -5 51 -11z m400 -6 c0 -25 -23 -83
-32 -83 -17 0 -18 27 -3 63 16 38 35 49 35 20z m-305 -29 c22 -6 67 -77 69
-109 1 -15 9 -21 33 -23 17 -2 37 -10 44 -18 19 -23 15 -93 -8 -115 -19 -19
-20 -19 -54 4 -39 26 -129 63 -143 59 -4 -1 -15 3 -22 9 -16 13 -214 17 -233
5 -6 -4 -11 -3 -11 3 0 13 39 49 60 56 17 5 40 45 40 69 0 20 24 37 77 51 51
14 115 18 148 9z m228 -151 c-20 -41 -43 -55 -43 -26 0 10 -7 27 -15 37 -8 10
-12 23 -9 27 8 13 48 11 63 -3 11 -11 12 -8 7 12 -6 21 -5 22 4 7 9 -14 7 -26
-7 -54z m107 -65 c36 -57 40 -69 40 -130 0 -58 -3 -69 -22 -82 -32 -22 -107
-21 -115 2 -4 9 -19 32 -35 50 -37 43 -37 82 2 125 17 19 30 39 30 44 0 17 31
53 46 53 8 0 32 -28 54 -62z m-1420 14 c0 -35 -154 -212 -184 -212 -8 0 -19
-7 -26 -15 -7 -8 -29 -15 -49 -15 -48 0 -78 31 -83 85 -3 37 -1 40 20 38 29
-4 55 10 115 60 45 38 50 40 111 39 48 -1 66 3 70 14 6 15 26 20 26 6z m914
-52 l-6 -45 25 36 c22 30 34 37 73 43 40 5 51 3 69 -14 12 -11 25 -20 30 -20
13 0 75 -50 75 -60 0 -15 -57 -40 -91 -40 -22 0 -42 9 -61 27 -20 19 -28 22
-28 12 0 -9 13 -28 30 -44 27 -26 33 -27 86 -22 37 4 61 12 66 21 5 9 13 16
18 16 9 0 -15 -68 -31 -84 -11 -12 -101 -8 -113 5 -6 5 -21 9 -35 9 -15 0 -39
7 -55 15 -15 8 -32 15 -37 15 -15 0 -143 62 -161 78 -21 18 -23 55 -5 71 13
10 104 28 140 27 15 0 17 -7 11 -46z m-1175 11 c-13 -11 -28 -20 -34 -20 -5 0
3 11 20 24 16 13 31 22 34 20 2 -3 -7 -13 -20 -24z m1066 -135 c22 -9 48 -21
57 -26 10 -6 26 -10 36 -10 9 0 26 -6 37 -13 11 -7 57 -22 103 -32 45 -11 82
-24 82 -29 0 -6 -19 -29 -42 -53 -23 -23 -39 -46 -35 -50 4 -4 31 17 60 45 52
51 70 61 81 43 17 -27 -27 -76 -124 -141 -13 -8 -35 -25 -49 -36 -14 -12 -36
-24 -48 -28 -13 -4 -30 -14 -38 -22 -13 -14 -15 -14 -15 0 0 8 15 22 34 31 43
21 77 55 54 55 -17 0 -117 -63 -133 -84 -11 -15 -101 -56 -121 -56 -8 0 -14
-4 -14 -10 0 -5 5 -10 10 -10 24 0 7 -19 -26 -30 -42 -14 -130 -6 -157 15 -26
19 -14 69 27 110 l32 32 32 -49 c18 -26 39 -48 47 -48 14 0 14 3 1 28 -8 15
-24 38 -35 51 -38 44 -19 111 28 96 18 -5 19 -4 8 24 -9 25 -8 37 6 66 9 20
17 47 17 61 0 31 27 97 37 91 5 -2 26 -11 48 -21z m-120 -53 l-16 -28 7 35 c8
44 17 60 22 38 2 -9 -4 -29 -13 -45z m578 32 c44 -39 36 -50 -38 -45 -16 1
-31 3 -33 4 -4 5 29 66 36 66 4 0 19 -12 35 -25z m-623 -139 c-5 -12 -11 -34
-15 -49 -5 -24 -8 -27 -20 -17 -19 16 -19 43 -1 83 8 18 17 41 21 52 7 17 9
15 15 -14 5 -19 4 -44 0 -55z m775 54 c5 -9 -27 -45 -82 -93 -23 -20 -53 -13
-53 13 0 12 11 19 38 23 30 5 40 12 49 37 11 29 36 40 48 20z m-95 -10 c0 -5
-9 -10 -21 -10 -11 0 -17 5 -14 10 3 6 13 10 21 10 8 0 14 -4 14 -10z m470
-45 c-26 -67 -117 -219 -159 -262 -11 -12 -21 -25 -21 -29 0 -10 -177 -182
-227 -220 -24 -19 -65 -54 -91 -78 -125 -117 -180 -167 -217 -194 -22 -16 -46
-36 -54 -45 -7 -9 -24 -17 -38 -17 -29 0 -57 -14 -86 -43 -20 -20 -22 -20 -25
-4 -2 10 1 31 7 45 5 15 13 50 17 77 4 28 17 74 30 104 13 29 24 58 24 64 0 5
10 30 22 54 18 36 35 52 88 80 36 20 86 51 113 70 26 18 49 33 51 33 9 0 228
150 261 179 19 17 50 38 68 47 17 9 41 25 52 35 23 22 176 127 187 128 4 1 3
-10 -2 -24z m-528 -25 c-5 -37 12 -60 44 -60 24 0 24 -1 10 -29 -18 -33 -161
-156 -200 -171 -14 -5 -34 -25 -43 -45 -9 -19 -20 -35 -25 -35 -5 0 -2 10 6
23 7 12 22 45 32 72 35 97 124 262 147 272 30 14 34 9 29 -27z m-1303 -64 c7
-8 13 -27 14 -42 2 -26 -1 -29 -39 -34 -23 -3 -46 -4 -53 -2 -17 6 -13 37 10
66 23 29 50 34 68 12z m1589 -21 c-20 -14 -41 -25 -46 -25 -6 0 -20 -11 -33
-25 -13 -13 -33 -25 -44 -25 -22 0 9 24 95 73 58 33 76 34 28 2z m-1116 -7
c-7 -7 -12 -8 -12 -2 0 14 12 26 19 19 2 -3 -1 -11 -7 -17z m78 12 c0 -5 -5
-10 -11 -10 -5 0 -7 5 -4 10 3 6 8 10 11 10 2 0 4 -4 4 -10z m582 -42 c-11
-18 -31 -67 -45 -108 -46 -138 -74 -180 -112 -172 -20 3 -25 0 -25 -16 0 -11
7 -23 16 -26 17 -7 16 -35 -5 -91 -27 -75 -90 -286 -101 -337 -6 -32 -14 -58
-17 -58 -14 0 -43 49 -49 81 -11 65 -74 153 -74 104 0 -9 18 -55 41 -102 22
-46 38 -91 35 -99 -5 -13 -44 -34 -119 -63 -15 -6 -30 -18 -34 -27 -15 -39 48
-34 141 12 27 14 50 23 51 22 1 -2 10 -28 19 -60 22 -75 20 -110 -5 -131 -28
-25 -19 -41 24 -45 27 -2 39 1 43 12 20 53 94 -29 170 -191 26 -54 55 -114 64
-133 47 -91 71 -139 91 -185 12 -27 37 -74 55 -102 19 -29 51 -89 73 -134 31
-66 37 -87 30 -106 -5 -13 -9 -47 -9 -75 0 -60 22 -95 99 -153 49 -38 52 -42
87 -153 19 -62 33 -120 30 -127 -3 -8 -14 -18 -25 -24 -18 -10 -20 -7 -26 34
-9 53 -31 79 -39 43 -3 -12 -7 -34 -8 -46 l-3 -24 -27 22 c-16 12 -28 30 -28
41 0 13 -11 25 -32 34 -37 15 -99 92 -141 174 -15 30 -32 60 -39 68 -6 8 -21
35 -33 61 -13 26 -46 74 -74 107 -28 32 -54 68 -57 80 -4 11 -23 36 -43 55
-102 101 -351 392 -376 441 -10 19 -23 39 -30 44 -6 6 -56 60 -110 120 -55 61
-124 136 -155 167 -64 66 -80 90 -91 138 -8 33 3 114 21 155 4 11 22 67 40
125 18 58 39 128 48 155 15 51 61 158 88 207 7 14 14 31 14 38 0 6 9 23 20 37
11 14 20 36 20 49 0 12 5 26 12 30 7 5 9 2 6 -8 -5 -11 1 -15 20 -16 38 -2 76
-8 88 -13 5 -3 23 -6 39 -7 91 -6 240 57 362 153 37 30 76 54 86 55 18 0 18
-2 -1 -32z m-615 -25 c-3 -10 -5 -4 -5 12 0 17 2 24 5 18 2 -7 2 -21 0 -30z
m-21 -58 c4 -25 -4 -56 -36 -131 -79 -184 -93 -219 -94 -234 -1 -8 -14 -41
-29 -73 -15 -32 -27 -59 -27 -62 0 -2 -5 -16 -10 -31 l-11 -27 -24 23 c-13 12
-29 36 -36 53 -20 54 -57 102 -104 137 -39 29 -45 38 -45 71 0 69 18 85 56 52
10 -10 41 -35 67 -57 27 -21 59 -56 73 -77 28 -45 54 -51 54 -14 0 17 -17 43
-55 80 -30 31 -55 61 -55 69 0 7 27 44 60 82 33 38 78 92 100 121 22 28 50 59
62 67 21 15 24 15 35 -1 7 -9 15 -31 19 -48z m940 16 c-3 -5 -24 -18 -47 -30
-46 -24 -43 -9 5 20 33 20 51 25 42 10z m-1407 -109 c1 -41 -5 -61 -25 -92
-26 -39 -28 -40 -46 -23 -29 26 -48 68 -48 105 0 30 6 37 52 66 61 37 66 33
67 -56z m67 61 c13 -18 19 -85 8 -95 -3 -3 -13 -4 -24 -1 -27 7 -35 113 -8
113 6 0 17 -8 24 -17z m1648 5 c-5 -7 -27 -39 -51 -72 -24 -32 -43 -63 -43
-70 0 -11 -157 -168 -217 -216 -17 -14 -57 -48 -90 -77 -66 -59 -107 -90 -172
-130 -24 -16 -58 -40 -74 -55 -17 -15 -33 -25 -36 -21 -3 3 0 8 7 10 6 3 12 8
12 13 0 12 130 138 280 271 194 173 290 261 333 307 49 51 66 64 51 40z m1286
-41 c14 -2 48 -8 75 -12 28 -4 66 -13 85 -20 19 -7 60 -20 91 -30 108 -31 270
-169 380 -321 33 -46 64 -84 68 -84 8 0 17 -16 55 -103 30 -67 31 -76 11 -83
-15 -6 -61 22 -110 68 -79 73 -114 100 -157 120 -27 12 -48 25 -48 29 0 4 -15
16 -32 28 -18 12 -65 45 -104 74 -40 28 -89 65 -110 80 -52 38 -203 127 -215
127 -5 0 -35 14 -66 30 -31 17 -61 30 -68 30 -7 0 -38 11 -69 25 -31 14 -66
25 -78 25 -42 0 -7 13 54 21 60 7 185 5 238 -4z m-525 -47 c-9 -14 -88 -47
-127 -53 -29 -4 -80 -23 -130 -48 -43 -22 -69 -2 -41 31 10 12 30 20 48 20 17
0 40 6 50 14 11 8 49 17 85 21 35 4 73 11 84 15 29 12 38 12 31 0z m-515 -91
c30 -6 86 -17 124 -24 79 -14 98 -32 94 -85 -3 -31 -7 -36 -53 -53 -27 -11
-63 -25 -80 -33 -16 -7 -68 -24 -115 -38 -47 -13 -105 -32 -130 -41 -25 -9
-58 -19 -75 -22 -16 -3 -34 -9 -40 -13 -5 -4 -29 -11 -52 -15 -24 -4 -45 -10
-48 -15 -3 -4 -25 -11 -50 -14 -24 -4 -47 -11 -50 -17 -4 -5 -18 -9 -32 -9
-15 0 -54 -9 -87 -19 -215 -68 -233 -72 -219 -47 4 7 29 31 55 52 108 90 266
227 303 264 27 27 46 38 58 34 12 -4 35 10 72 45 32 28 67 51 83 53 71 9 192
7 242 -3z m231 -210 c26 -50 -24 -126 -95 -143 -16 -4 -48 -26 -72 -50 -23
-24 -58 -49 -76 -55 -18 -7 -42 -17 -53 -21 -29 -13 -124 -37 -170 -44 -37 -6
-177 -40 -290 -71 -27 -8 -68 -17 -90 -20 -22 -4 -49 -10 -60 -14 -57 -23
-221 -47 -259 -37 -23 6 -24 9 -16 32 6 14 10 43 10 64 0 62 70 115 111 86 18
-12 28 -12 72 1 29 8 71 20 95 26 23 6 42 14 42 18 0 4 19 10 43 14 42 7 106
26 312 90 61 19 117 35 125 35 8 0 32 6 55 14 22 7 58 19 80 26 37 11 78 28
145 58 42 18 78 14 91 -9z m-187 -297 c-25 -23 -65 -35 -58 -17 6 14 41 33 63
34 11 1 9 -4 -5 -17z m-103 -36 c-7 -8 -28 -16 -49 -19 -20 -3 -57 -10 -82
-17 -45 -11 -115 -25 -178 -35 -19 -3 -54 -10 -78 -16 -25 -7 -47 -9 -51 -6
-3 4 0 8 8 11 57 17 154 39 208 45 35 5 66 13 70 19 4 6 26 11 50 10 23 0 48
5 54 11 6 6 22 11 35 11 20 0 22 -3 13 -14z m1882 -9 c21 4 30 -2 52 -35 25
-38 55 -123 58 -167 2 -17 -5 -21 -39 -23 -41 -3 -73 17 -100 64 -17 28 -28
10 -18 -28 6 -20 24 -42 44 -56 29 -20 43 -23 88 -19 53 6 53 6 78 -35 34 -53
64 -124 64 -151 0 -11 -4 -34 -9 -51 -5 -17 -17 -58 -27 -91 -27 -96 -75 -234
-90 -263 -8 -15 -14 -33 -14 -40 0 -8 -31 -75 -70 -151 -38 -75 -70 -141 -70
-145 0 -17 -90 -162 -115 -186 -15 -14 -25 -35 -25 -51 0 -24 -12 -56 -42
-109 -4 -8 -12 -25 -18 -37 -5 -13 -14 -23 -20 -23 -5 0 -10 -8 -10 -17 -1
-26 -28 -59 -39 -47 -6 5 10 51 44 121 29 61 56 121 60 132 3 12 11 21 16 21
5 0 9 9 9 19 0 11 13 39 29 63 39 59 104 215 97 233 -10 28 -26 15 -52 -42
-63 -138 -117 -249 -129 -263 -23 -27 -82 -145 -89 -177 -11 -50 -28 -58 -75
-34 -33 17 -41 28 -47 58 -4 21 -2 50 5 68 16 44 14 68 -4 61 -8 -3 -15 -4
-15 -2 0 13 37 88 61 124 16 24 29 46 29 50 0 4 11 24 25 44 14 20 25 42 25
48 0 7 8 24 18 38 52 75 119 225 128 287 3 28 11 59 17 70 28 53 45 496 23
577 -8 29 -17 72 -20 96 l-6 43 44 -30 c24 -17 46 -37 50 -46 7 -18 26 -11 26
9 0 7 -14 31 -31 52 -27 35 -29 39 -12 45 10 3 30 3 44 -1 14 -4 38 -6 52 -3z
m-2800 -5 c21 -5 -22 -96 -50 -107 -23 -8 -61 33 -65 70 -3 26 1 30 27 35 27
5 66 6 88 2z m947 -64 c0 -7 -7 -22 -15 -32 -8 -11 -15 -33 -15 -48 0 -16 -6
-41 -13 -56 -8 -15 -22 -63 -32 -107 -9 -44 -21 -91 -26 -105 -4 -14 -11 -45
-14 -70 -4 -25 -18 -65 -31 -89 -13 -24 -24 -50 -24 -58 0 -8 -16 -49 -37 -91
-28 -58 -38 -95 -44 -156 -11 -117 -11 -243 2 -312 11 -62 61 -220 85 -266 8
-15 14 -34 14 -42 0 -16 -59 -56 -82 -56 -15 0 -25 45 -32 135 -3 37 -38 107
-43 84 -5 -21 -52 -13 -86 14 -31 25 -84 162 -98 249 -5 31 -16 76 -24 100 -9
23 -27 79 -41 123 -13 43 -29 84 -34 89 -6 6 -10 19 -10 31 0 29 -86 195 -154
299 -43 65 -55 91 -45 97 7 4 40 10 73 14 34 3 72 10 86 14 14 5 54 17 90 27
36 9 72 23 81 31 8 7 22 13 30 13 22 0 102 30 119 44 23 20 86 46 108 46 12 0
24 5 27 10 6 10 78 50 90 50 11 0 4 -38 -10 -50 -8 -7 -15 -20 -15 -29 0 -9
-11 -34 -25 -56 -13 -22 -25 -48 -25 -58 0 -11 -6 -33 -14 -50 -58 -128 -72
-167 -106 -292 -28 -101 -24 -135 6 -50 14 39 29 86 33 105 16 73 115 324 152
389 21 38 39 72 39 76 0 14 32 45 47 45 7 0 13 -6 13 -12z m-232 -32 c-26 -12
-53 -27 -60 -33 -7 -6 -35 -18 -63 -28 -27 -10 -54 -22 -59 -27 -6 -4 -18 -8
-27 -8 -9 0 -30 -7 -45 -15 -36 -19 -69 -20 -35 -1 42 23 -4 28 -62 6 -50 -18
-86 -28 -187 -52 -25 -5 -53 -20 -62 -31 l-17 -22 -55 60 c-30 33 -55 63 -56
66 0 4 33 10 73 13 39 3 86 8 102 11 17 3 84 8 150 13 66 4 127 12 135 17 8 5
53 15 100 21 47 7 105 17 130 22 75 16 88 12 38 -12z m4442 -61 c7 -8 25 -15
41 -15 15 0 30 -4 34 -9 3 -5 19 -13 36 -16 17 -4 47 -18 66 -31 20 -13 42
-24 49 -24 8 0 14 -5 14 -11 0 -7 -7 -8 -17 -4 -10 4 -33 9 -51 12 -18 3 -35
10 -38 14 -3 5 -16 9 -30 9 -13 0 -32 4 -42 9 -9 5 -28 14 -42 20 -37 17 -70
37 -83 50 -8 8 -3 11 20 11 17 0 36 -7 43 -15z m-1765 -55 c3 -5 -1 -10 -10
-10 -9 0 -13 5 -10 10 3 6 8 10 10 10 2 0 7 -4 10 -10z m344 -65 c95 -28 127
-45 180 -96 76 -73 67 -109 -29 -109 -120 0 -276 63 -367 149 -54 51 -63 66
-41 73 29 10 205 -2 257 -17z m-3613 -147 c56 -65 184 -301 184 -339 0 -10 4
-20 9 -23 7 -5 21 -49 38 -121 4 -17 -68 99 -90 145 -4 8 -16 29 -26 45 -28
42 -61 109 -61 122 0 5 -11 30 -25 54 -14 24 -27 51 -31 59 -3 8 -12 30 -20
48 -16 37 -6 42 22 10z m4052 -48 c34 -33 59 -60 56 -60 -16 0 -54 29 -95 72
-65 69 -33 59 39 -12z m-3373 -197 c-9 -21 -20 -242 -20 -398 0 -155 10 -256
29 -293 9 -17 16 -37 16 -43 0 -7 7 -20 15 -29 9 -10 13 -25 9 -34 -7 -19 -24
-21 -24 -3 0 8 -9 22 -20 32 -11 10 -20 26 -20 36 0 10 -4 20 -9 23 -5 4 -12
25 -16 49 -4 23 -13 53 -20 67 -7 14 -18 73 -26 131 -11 91 -10 121 3 210 14
96 28 148 49 191 5 10 9 26 9 36 0 10 5 23 12 30 17 17 21 15 13 -5z m-332
-555 c9 -23 15 -43 13 -46 -6 -5 -32 38 -41 66 -11 39 11 23 28 -20z m189
-218 c23 -62 24 -136 0 -149 -21 -11 -30 6 -55 114 -22 89 -22 87 10 83 22 -2
31 -12 45 -48z m1657 -42 c-5 -18 -6 -40 -3 -50 4 -13 1 -16 -10 -12 -19 7
-20 17 -4 61 15 42 30 43 17 1z m-1399 -98 c0 -18 -19 -1 -36 33 l-16 32 26
-27 c14 -15 26 -32 26 -38z m-59 3 c20 -21 49 -56 65 -79 46 -64 206 -194 239
-194 26 0 39 -32 37 -90 -2 -44 5 -76 27 -135 17 -43 28 -82 25 -86 -15 -24
-141 13 -208 61 -75 54 -93 74 -152 170 -32 52 -65 105 -75 117 -17 23 -47 97
-69 171 -13 41 -12 43 15 72 37 39 54 38 96 -7z m1478 -71 c9 -23 22 -47 29
-54 18 -18 15 -49 -18 -145 l-29 -88 -48 -8 c-26 -4 -62 -5 -79 -2 -28 5 -32
9 -29 33 4 41 26 136 35 147 10 14 50 132 50 150 0 7 8 18 18 24 25 14 52 -7
71 -57z m239 -28 c-1 -33 1 -89 6 -127 7 -59 6 -68 -10 -74 -11 -4 -20 -1 -23
8 -2 8 -22 32 -43 53 -22 23 -38 49 -38 63 0 14 -6 23 -15 23 -13 0 -14 4 -3
23 10 18 13 19 16 5 6 -30 32 -8 64 55 36 72 49 63 46 -29z m-1853 9 c14 -32
32 -71 40 -86 8 -16 15 -35 15 -42 0 -21 -57 -1 -85 30 -13 14 -31 25 -40 25
-24 0 -21 84 5 110 11 11 25 20 30 20 6 0 22 -26 35 -57z m-147 -83 c8 -13 23
-20 42 -20 17 0 33 -6 36 -14 3 -8 14 -16 25 -19 29 -8 23 -27 -8 -27 -30 0
-112 34 -114 47 -9 56 -3 67 19 33z m-88 -4 c0 -11 -19 -15 -25 -6 -3 5 1 10
9 10 9 0 16 -2 16 -4z m645 -26 c4 -6 -5 -5 -19 2 -14 6 -26 15 -26 20 0 10
36 -7 45 -22z m41 -37 c-7 -7 -26 7 -26 19 0 6 6 6 15 -2 9 -7 13 -15 11 -17z
m1313 -39 c10 -22 9 -28 -6 -40 -29 -22 -63 -18 -63 8 0 24 26 58 45 58 6 0
17 -12 24 -26z m-1898 -4 c20 -6 48 -21 63 -35 26 -24 26 -24 9 -60 -16 -34
-36 -45 -48 -25 -3 6 -15 10 -26 10 -11 0 -33 7 -49 15 -32 17 -39 49 -20 86
12 22 21 23 71 9z m229 -21 c0 -13 -38 -11 -63 3 -22 12 -21 12 8 18 29 6 55
-4 55 -21z m1790 -49 c0 -5 -2 -10 -4 -10 -3 0 -8 5 -11 10 -3 6 -1 10 4 10 6
0 11 -4 11 -10z m-60 -15 c18 -22 8 -38 -44 -63 -25 -13 -46 -27 -46 -32 0 -4
-12 -13 -27 -19 -16 -6 -36 -16 -45 -23 -9 -7 -20 -9 -24 -5 -10 9 27 128 40
132 6 1 25 7 41 13 45 15 91 14 105 -3z m-235 -25 c3 -5 0 -46 -7 -91 -12 -76
-15 -83 -51 -111 -42 -33 -43 -49 -6 -58 21 -5 23 -11 21 -44 -4 -39 -51 -120
-76 -129 -15 -6 -14 -10 -40 178 -27 203 -19 246 49 256 65 10 103 10 110 -1z
m-1022 -39 c20 -22 43 -54 52 -70 8 -17 19 -31 24 -31 15 0 22 -32 10 -46 -14
-17 -75 -18 -86 -1 -15 24 -53 142 -53 165 0 32 13 28 53 -17z m1312 -8 c6
-12 26 -36 45 -53 29 -27 32 -33 18 -41 -39 -22 -214 -51 -195 -33 3 4 0 19
-8 35 -20 38 -13 50 53 86 63 36 72 36 87 6z m-2015 7 c39 -1 43 -17 15 -56
-31 -42 -145 -158 -150 -152 -2 2 3 32 11 68 7 36 16 79 19 95 12 57 13 58 53
51 20 -3 44 -6 52 -6z m2164 -177 c13 -21 35 -49 50 -62 14 -14 26 -30 26 -36
0 -30 -252 -92 -452 -112 -47 -5 -48 -5 -48 24 0 17 9 38 20 48 26 23 26 38
-1 30 -18 -6 -20 -3 -17 31 l3 37 85 18 c47 10 105 21 130 24 l45 6 -40 -15
c-22 -9 -42 -16 -44 -16 -3 0 -1 -4 5 -10 6 -6 38 5 89 30 101 50 118 50 149
3z m285 -132 c31 -11 90 -30 131 -42 103 -31 111 -40 70 -75 -18 -16 -51 -59
-75 -95 -42 -65 -77 -92 -135 -102 -55 -11 -199 -49 -273 -72 -43 -14 -82 -23
-86 -20 -5 3 -28 -2 -52 -10 -45 -16 -55 -13 -61 20 -2 11 -12 21 -23 23 -31
5 -84 35 -90 50 -8 22 2 29 52 36 48 7 101 21 138 37 11 5 49 15 85 23 116 26
155 37 165 47 13 13 93 11 97 -3 3 -8 18 -6 54 7 27 10 53 22 59 27 5 4 19 8
31 8 28 0 48 22 33 37 -7 7 -22 8 -42 2 -62 -18 -94 -12 -120 24 -34 45 -49
76 -42 87 9 14 20 13 84 -9z m-133 -58 c24 -27 44 -53 44 -60 0 -6 -26 -19
-57 -28 -32 -9 -92 -28 -133 -42 -72 -23 -117 -33 -224 -49 -26 -4 -64 -15
-84 -24 -74 -36 -75 8 -2 56 22 15 40 31 40 36 0 5 -3 8 -7 6 -5 -2 -33 -16
-64 -32 -72 -37 -89 -31 -89 28 0 50 0 50 85 60 43 5 83 13 219 46 49 11 94
19 100 17 6 -2 16 2 23 9 7 7 21 10 32 7 10 -3 22 0 25 6 15 23 50 9 92 -36z
m-686 -103 c0 -11 -2 -20 -5 -20 -2 0 -9 9 -15 20 -9 16 -8 20 5 20 8 0 15 -9
15 -20z m830 -194 c0 -8 -4 -17 -9 -20 -4 -3 -21 -30 -36 -61 -37 -72 -48 -81
-125 -95 -36 -7 -74 -16 -85 -21 -32 -13 -105 -22 -105 -12 0 13 13 29 35 42
17 11 15 11 -18 6 -33 -5 -41 -2 -67 27 -37 40 -37 46 -2 54 15 3 50 10 77 16
28 6 70 16 95 23 25 8 63 17 85 21 22 3 45 10 50 14 28 21 105 25 105 6z
m-580 -48 c0 -16 -17 -7 -46 23 l-29 31 37 -24 c20 -12 37 -26 38 -30z m110
-90 c17 -12 30 -28 30 -36 0 -8 -16 -2 -45 19 -25 18 -45 34 -45 36 0 11 35 0
60 -19z m340 -73 c0 -9 -83 -161 -96 -174 -11 -12 -16 -12 -29 -1 -25 21 -75
100 -78 123 -2 20 6 23 72 34 41 7 76 15 79 18 7 6 52 7 52 0z m-258 -82 c22
-20 26 -103 5 -103 -17 0 -97 95 -97 115 0 13 75 3 92 -12z m96 -112 c3 -16
-1 -22 -10 -19 -7 3 -15 15 -16 27 -3 16 1 22 10 19 7 -3 15 -15 16 -27z m4
-83 c14 -40 -20 -127 -43 -112 -9 5 -4 98 6 114 8 14 32 13 37 -2z m-57 -200
c9 -40 9 -62 1 -113 -12 -79 -13 -79 -78 -107 -73 -31 -140 -60 -150 -66 -5
-2 -8 3 -8 11 0 9 10 17 22 19 13 2 24 11 26 22 3 13 0 16 -10 10 -16 -10 42
64 70 90 12 10 33 41 48 70 44 85 69 105 79 64z m-65 -297 c-11 -22 -24 -56
-29 -78 -5 -21 -28 -90 -51 -153 -22 -63 -52 -159 -65 -214 -13 -54 -27 -102
-32 -107 -12 -12 -55 89 -78 178 -13 51 -13 78 -5 153 10 91 10 91 60 141 27
27 57 49 68 49 10 0 22 4 28 9 12 12 107 61 117 61 4 0 -2 -18 -13 -39z m-128
-666 c12 -33 30 -70 41 -82 24 -27 15 -43 -13 -25 -29 18 -45 15 -59 -10 -9
-19 -10 -13 -4 32 3 30 6 84 6 120 -1 36 1 56 4 45 2 -11 14 -47 25 -80z m275
-141 c-3 -3 -12 -4 -19 -1 -8 3 -5 6 6 6 11 1 17 -2 13 -5z m173 -33 c0 -25
-110 -68 -136 -53 -14 8 -14 11 -3 18 56 36 139 57 139 35z m-434 -68 c8 -35
12 -38 47 -41 32 -3 37 -6 32 -20 -4 -9 -8 -29 -10 -44 -1 -14 -9 -37 -18 -51
-9 -13 -20 -39 -24 -58 -10 -38 -22 -44 -47 -26 -14 10 -20 37 -29 128 -11
125 -8 149 21 149 13 0 21 -11 28 -37z m-3018 -756 c37 -24 75 -48 86 -54 16
-9 13 -12 -25 -28 -24 -9 -64 -23 -88 -31 -40 -12 -46 -11 -57 4 -8 9 -14 26
-14 38 0 11 -11 31 -25 44 -31 29 -32 48 -2 60 39 16 57 11 125 -33z m-133
-123 c15 -44 12 -54 -15 -54 -24 0 -34 31 -25 77 8 42 20 35 40 -23z"/>
<path d="M7233 8913 c-24 -2 -43 -8 -43 -13 0 -11 119 -12 160 -3 22 6 23 7 5
14 -21 8 -49 8 -122 2z"/>
<path d="M7129 8896 c-2 -2 -58 -6 -123 -10 -116 -6 -136 -9 -123 -22 9 -10
260 15 271 26 7 7 5 10 -5 10 -9 0 -18 -2 -20 -4z"/>
<path d="M6735 8850 c-3 -5 1 -10 10 -10 9 0 13 5 10 10 -3 6 -8 10 -10 10 -2
0 -7 -4 -10 -10z"/>
<path d="M6131 7564 c0 -11 3 -14 6 -6 3 7 2 16 -1 19 -3 4 -6 -2 -5 -13z"/>
<path d="M5442 7048 c-15 -15 -16 -45 0 -54 7 -4 8 -3 4 5 -4 6 -2 18 4 26 16
19 9 40 -8 23z"/>
<path d="M6402 5578 c-15 -105 -14 -251 2 -338 13 -73 14 -68 14 168 0 133 -1
242 -3 242 -1 0 -7 -33 -13 -72z"/>
<path d="M8234 4165 c-10 -8 -26 -15 -35 -15 -9 0 -22 -7 -29 -15 -10 -12 -9
-15 4 -15 16 0 96 46 96 55 0 9 -16 5 -36 -10z"/>
<path d="M8715 3890 c-3 -5 -2 -10 4 -10 5 0 13 5 16 10 3 6 2 10 -4 10 -5 0
-13 -4 -16 -10z"/>
<path d="M8405 3750 c-3 -5 -1 -10 4 -10 6 0 11 5 11 10 0 6 -2 10 -4 10 -3 0
-8 -4 -11 -10z"/>
<path d="M8585 3610 c-3 -5 -2 -10 4 -10 5 0 13 5 16 10 3 6 2 10 -4 10 -5 0
-13 -4 -16 -10z"/>
<path d="M5286 10311 c-3 -4 -23 -11 -45 -14 -38 -5 -173 -67 -198 -90 -8 -8
-9 -17 -4 -26 7 -11 19 -7 63 21 51 34 160 88 177 88 5 0 14 7 21 15 8 9 9 15
2 15 -6 0 -13 -4 -16 -9z"/>
<path d="M5276 10258 c3 -4 11 -5 19 -1 21 7 19 12 -4 10 -11 0 -18 -5 -15 -9z"/>
<path d="M5185 10169 c-11 -17 0 -20 21 -4 17 13 17 14 2 15 -9 0 -20 -5 -23
-11z"/>
<path d="M5110 9580 c0 -5 5 -10 11 -10 5 0 7 5 4 10 -3 6 -8 10 -11 10 -2 0
-4 -4 -4 -10z"/>
<path d="M2235 9101 c-3 -10 -3 -25 0 -34 4 -8 0 -28 -8 -44 -25 -49 -29 -91
-9 -102 16 -9 16 -11 1 -23 -21 -16 -40 -189 -33 -293 3 -38 1 -126 -3 -194
l-8 -125 -37 33 c-21 18 -38 39 -38 47 0 19 -32 84 -42 84 -13 0 -9 -23 12
-63 24 -45 25 -47 2 -47 -35 0 -56 40 -65 125 -1 15 3 19 21 18 12 -2 22 2 22
7 0 6 10 10 23 10 19 1 17 3 -12 19 -19 10 -40 31 -47 47 l-13 29 6 -34 c5
-26 3 -32 -7 -26 -8 5 -11 21 -7 46 3 27 -2 51 -19 86 -13 26 -24 53 -24 59 0
6 -7 17 -15 24 -8 7 -15 24 -15 39 -1 27 -26 69 -36 59 -3 -3 2 -27 10 -52 9
-26 16 -51 16 -57 0 -6 12 -36 27 -67 34 -73 38 -157 8 -157 -15 0 -24 14 -40
60 -13 40 -26 61 -38 63 -17 3 -18 -1 -11 -45 3 -26 16 -61 27 -77 11 -16 24
-49 27 -73 6 -38 5 -43 -9 -36 -26 12 -194 15 -224 4 -20 -8 -27 -17 -27 -36
0 -25 -2 -31 -33 -93 -22 -43 -21 -55 3 -77 27 -25 250 -36 250 -13 0 10 16
19 50 25 28 6 50 7 50 4 0 -13 -24 -31 -42 -31 -10 0 -18 -4 -18 -10 0 -5 -12
-13 -27 -16 -16 -4 -73 -29 -127 -55 -54 -27 -103 -46 -108 -43 -5 4 -19 -3
-31 -13 -22 -20 -75 -46 -222 -109 -45 -19 -80 -50 -66 -59 5 -3 12 -1 16 5 3
5 15 10 25 10 10 0 25 7 34 15 8 8 23 15 32 15 14 0 15 -3 6 -12 -7 -7 -12
-20 -12 -31 0 -25 -105 -127 -224 -217 -55 -41 -127 -101 -161 -133 -34 -32
-71 -64 -83 -70 -40 -23 -167 -111 -190 -131 -13 -12 -52 -41 -87 -66 -158
-110 -185 -132 -185 -145 0 -21 17 -27 39 -13 29 18 36 3 12 -21 -12 -12 -21
-31 -21 -43 0 -13 -9 -38 -20 -56 -11 -18 -20 -41 -20 -51 0 -10 -8 -22 -17
-26 -10 -3 -18 -5 -18 -4 0 1 -10 -3 -21 -9 -25 -13 -94 -113 -94 -136 0 -25
33 -36 117 -39 95 -5 122 -17 116 -51 -4 -20 0 -25 25 -31 17 -3 33 -13 36
-21 3 -8 13 -14 21 -14 25 0 84 -50 101 -84 35 -74 68 -126 80 -126 8 0 21 12
30 28 33 53 151 152 181 152 6 0 16 -13 23 -29 6 -16 20 -37 31 -47 10 -9 19
-27 19 -39 0 -12 11 -34 24 -48 20 -21 33 -26 75 -25 46 0 52 3 57 24 4 13 13
28 21 33 15 8 27 57 38 146 2 22 2 31 -1 20 -12 -43 -24 -38 -24 11 0 28 5 55
12 62 9 9 6 17 -11 36 -13 14 -21 31 -17 38 4 7 13 24 20 37 l14 23 12 -22 c7
-14 9 -40 5 -70 -4 -27 -3 -56 3 -65 12 -22 24 72 15 116 l-6 30 54 -8 c75
-11 183 -10 189 2 3 6 -32 12 -90 16 -129 8 -144 13 -211 78 -52 51 -58 62
-65 110 -4 30 -13 55 -20 58 -9 3 -14 21 -14 49 0 30 -5 46 -15 50 -8 4 -13
10 -10 14 11 18 -105 230 -127 230 -13 0 -20 -21 -10 -33 6 -7 15 -31 21 -53
6 -23 18 -45 26 -48 19 -7 19 -1 -1 30 -9 13 -14 27 -12 30 3 3 16 -12 28 -33
12 -21 17 -39 12 -41 -13 -4 0 -50 23 -86 23 -34 66 -158 61 -171 -3 -5 -8 0
-11 13 -4 12 -11 22 -15 22 -4 0 -11 12 -15 27 -3 15 -10 30 -13 33 -10 7 -52
95 -52 109 0 6 -7 11 -14 11 -20 0 -2 -51 36 -104 15 -21 28 -47 28 -58 0 -10
5 -18 10 -18 6 0 10 -11 10 -25 0 -19 -8 -28 -27 -36 -15 -6 -53 -35 -84 -65
-32 -30 -63 -54 -69 -54 -6 0 -8 -4 -5 -10 3 -5 -10 -16 -30 -24 -19 -8 -35
-18 -35 -21 0 -3 24 -4 53 -3 50 3 52 2 55 -24 3 -22 0 -26 -17 -21 -15 4 -21
1 -21 -11 0 -9 -8 -16 -19 -16 -10 0 -24 -7 -31 -15 -7 -8 -18 -15 -24 -15 -6
0 -17 -9 -24 -20 -10 -17 -10 -20 3 -20 9 0 18 6 21 14 3 8 17 17 32 21 14 3
38 15 54 26 l28 20 0 -40 c0 -79 -98 -193 -167 -195 -33 -1 -38 3 -64 49 -16
28 -26 56 -24 63 2 6 -3 12 -13 12 -22 0 -122 69 -122 84 0 11 30 29 90 54 37
16 2 14 -44 -2 -22 -7 -45 -21 -52 -30 -11 -16 -16 -16 -71 0 -32 10 -72 17
-90 16 -18 -1 -35 3 -38 8 -3 6 1 10 10 10 9 0 33 17 54 38 21 20 60 58 87 83
78 73 168 180 199 236 31 57 39 123 16 131 -10 3 -12 0 -8 -11 3 -8 0 -18 -7
-20 -10 -4 -12 1 -8 16 5 22 5 22 -16 3 -12 -11 -22 -28 -22 -39 0 -13 -5 -17
-15 -13 -10 3 -35 -15 -70 -51 -30 -31 -55 -54 -55 -51 0 25 35 80 60 93 17 9
30 19 30 23 1 4 24 23 51 42 74 51 174 130 177 141 2 4 27 22 56 38 29 17 64
41 79 55 14 13 44 34 66 46 22 13 37 28 34 35 -2 8 3 12 14 12 10 -1 18 5 18
14 0 18 58 79 75 79 12 0 12 0 -1 -38 -12 -36 -6 -51 55 -127 76 -96 176 -267
176 -300 0 -20 26 -80 98 -223 40 -79 66 -119 87 -132 23 -15 25 -20 12 -20
-11 0 -17 -5 -14 -12 7 -20 77 -11 103 13 12 11 28 19 35 18 18 -3 52 11 62
25 5 7 19 -3 38 -26 29 -35 35 -38 82 -38 61 1 130 33 204 95 62 52 133 127
133 141 0 6 6 17 14 23 11 9 26 0 76 -47 59 -56 62 -61 55 -93 -4 -19 -11 -38
-15 -44 -12 -16 -34 -118 -31 -140 5 -31 40 -75 60 -75 10 0 24 -7 31 -15 7
-8 23 -15 37 -15 27 0 52 -46 62 -115 6 -43 17 -50 34 -23 9 13 7 21 -6 36
-20 22 -37 152 -20 152 19 0 73 -87 73 -117 0 -6 7 -25 16 -43 16 -31 16 -34
-1 -47 -11 -7 -29 -13 -42 -13 -13 0 -24 -6 -24 -12 -2 -20 2 -43 9 -48 4 -3
8 -18 9 -34 1 -16 9 -36 18 -46 8 -9 15 -27 15 -39 0 -12 7 -33 16 -46 9 -14
14 -25 11 -25 -4 0 0 -18 8 -40 8 -22 12 -47 9 -54 -3 -8 -1 -17 5 -21 16 -9
14 80 -3 113 -19 38 -50 161 -43 168 3 4 12 -5 18 -20 8 -17 18 -25 28 -21 10
3 20 -3 26 -17 6 -12 20 -25 33 -28 12 -3 28 -14 35 -26 7 -11 22 -36 34 -55
13 -19 23 -50 23 -70 0 -23 10 -51 30 -80 16 -24 30 -49 30 -55 0 -7 15 -43
34 -80 18 -38 37 -80 41 -94 4 -14 21 -50 38 -80 24 -44 29 -66 28 -109 -2
-65 -13 -87 -45 -93 -25 -5 -44 14 -75 75 -15 28 -26 34 -36 17 -9 -15 51
-114 90 -149 19 -17 35 -38 35 -47 0 -9 25 -43 55 -77 34 -37 55 -69 55 -84 0
-13 7 -37 15 -53 9 -17 25 -89 36 -161 11 -73 23 -137 27 -143 4 -6 7 -61 7
-122 0 -107 1 -111 34 -162 19 -29 43 -55 56 -58 25 -6 95 20 95 35 0 14 -27
14 -35 1 -23 -37 -99 17 -112 79 -11 48 -9 178 3 274 6 42 6 77 2 77 -4 0 -8
-10 -8 -22 0 -50 -17 -51 -28 -2 -20 88 -24 133 -26 279 -3 185 6 202 60 109
27 -45 52 -56 73 -30 13 15 5 39 -21 68 -7 7 -32 37 -56 66 l-43 52 10 107 c6
59 11 163 11 233 l0 126 33 47 c18 25 48 63 67 84 19 21 64 72 99 113 36 41
70 80 77 85 6 6 20 24 30 41 21 33 42 60 178 223 98 117 102 120 166 137 59
15 73 38 40 65 l-25 19 28 25 c16 14 36 24 45 21 47 -13 112 -18 112 -7 0 6
-13 11 -29 11 -16 0 -41 4 -55 10 -21 8 -26 16 -26 45 0 20 -5 45 -11 57 -6
11 -9 22 -6 24 6 7 78 -34 99 -56 24 -26 59 -35 69 -19 6 11 14 11 41 1 18 -6
72 -13 120 -14 75 -2 91 1 115 18 16 12 28 27 28 35 0 8 11 19 25 25 25 11 25
11 -10 17 -19 4 -96 8 -170 9 l-136 3 -41 34 c-47 38 -67 34 -61 -14 4 -32 4
-32 -29 -22 -18 6 -40 19 -49 29 -16 17 -15 19 22 33 114 46 164 86 164 133 0
20 -42 42 -79 42 -8 0 -45 9 -81 20 -36 11 -83 24 -105 30 -22 5 -56 20 -75
31 l-35 22 40 18 c22 10 58 19 80 19 46 2 107 21 112 37 6 18 -25 23 -82 11
-41 -8 -70 -8 -108 0 -29 6 -83 14 -122 17 -106 8 -199 36 -203 60 -5 28 -31
83 -42 90 -6 3 -10 14 -10 25 0 17 8 18 118 13 107 -5 119 -4 126 12 15 39
-11 47 -138 44 -174 -4 -260 18 -273 69 -14 56 -59 66 -118 27 -24 -17 -41
-23 -49 -17 -6 5 -27 12 -46 16 -34 6 -100 44 -100 58 0 4 8 7 18 7 30 1 130
19 142 26 6 4 39 13 72 21 33 8 78 25 101 39 63 37 127 100 127 124 0 36 -42
25 -109 -30 -34 -28 -36 -28 -132 -22 -66 4 -113 2 -144 -7 -42 -12 -47 -11
-60 6 -8 10 -15 29 -15 42 0 32 -22 71 -59 106 -23 23 -28 33 -20 43 6 7 17
13 24 13 21 0 95 76 95 98 0 30 -4 28 -45 -15 -30 -33 -34 -35 -35 -17 0 31
-26 50 -45 34 -8 -7 -15 -17 -15 -22 0 -22 -63 -87 -93 -97 -79 -24 -96 -24
-106 1 l-9 23 -12 -27 c-11 -24 -19 -28 -55 -28 -27 0 -51 7 -68 20 -14 11
-30 20 -35 20 -5 0 -15 7 -22 15 -10 12 -8 20 12 44 12 16 35 34 51 40 15 5
27 15 27 20 0 6 8 19 18 29 31 31 169 110 210 122 39 10 70 35 59 46 -8 9 -90
-18 -112 -37 -11 -9 -45 -29 -77 -43 -31 -15 -63 -38 -72 -51 -9 -14 -21 -25
-27 -25 -12 0 -87 -55 -105 -76 -21 -26 -71 97 -94 231 -29 171 -35 195 -48
195 -10 0 -12 -7 -8 -25 4 -14 2 -25 -2 -25 -5 0 -19 36 -32 80 -23 81 -23 96
-1 218 11 58 6 82 -15 82 -8 0 -14 5 -14 10 0 17 -18 11 -25 -9z m-13 -266
c-6 -34 -12 -32 -12 6 0 16 4 28 9 25 4 -3 6 -17 3 -31z m-6 -62 c-10 -10 -19
5 -10 18 6 11 8 11 12 0 2 -7 1 -15 -2 -18z m103 -140 c11 -43 24 -100 31
-128 6 -27 20 -86 30 -130 11 -44 19 -84 19 -90 1 -13 -68 -47 -80 -40 -5 4
-9 20 -9 36 0 17 -6 32 -14 35 -21 8 -26 40 -31 236 -5 191 -1 228 21 185 8
-14 22 -60 33 -104z m-61 -315 c16 -74 24 -246 11 -253 -27 -18 -61 134 -39
175 11 20 10 22 -3 17 -14 -5 -15 -2 -7 19 6 14 11 47 12 74 1 27 4 47 6 45 2
-2 11 -37 20 -77z m-365 42 c37 -11 73 -28 82 -36 18 -19 14 -41 -6 -36 -7 2
-37 8 -66 13 -29 6 -79 22 -110 36 -49 22 -55 27 -38 34 33 13 70 10 138 -11z
m-148 -50 c12 -4 27 -15 34 -24 7 -9 24 -16 37 -16 42 0 26 -15 -29 -28 -61
-14 -116 -15 -136 -3 -17 11 -8 52 15 76 16 15 26 15 79 -5z m433 -63 c2 -10
-3 -17 -12 -17 -10 0 -16 9 -16 21 0 24 23 21 28 -4z m433 -67 c31 0 62 -7 73
-15 18 -13 18 -16 2 -40 -25 -37 -55 -32 -106 20 -48 49 -57 53 -62 29 -3 -15
-6 -14 -26 2 -20 17 -21 22 -10 45 l12 26 32 -33 c28 -30 37 -34 85 -34z
m-238 30 c-8 -17 -16 -49 -17 -70 -1 -22 -7 -45 -14 -52 -7 -7 -12 -17 -12
-24 0 -6 -6 -17 -14 -23 -11 -9 -15 -5 -20 25 -9 44 1 91 20 98 8 3 14 14 14
25 0 18 34 51 51 51 4 0 1 -14 -8 -30z m-158 -85 c16 -47 37 -93 47 -102 10
-9 18 -25 18 -36 0 -18 -1 -18 -18 4 -10 13 -27 41 -37 62 -11 21 -26 43 -32
49 -25 20 -14 -28 15 -68 53 -74 74 -119 70 -155 -2 -27 -8 -35 -27 -37 -53
-8 -65 3 -83 80 -10 41 -21 101 -24 136 -7 59 -6 62 15 62 17 0 21 6 21 36 0
21 -4 33 -10 29 -11 -7 -14 8 -3 18 14 15 21 4 48 -78z m260 -27 c6 -64 -3
-119 -21 -125 -6 -2 -10 14 -10 34 0 42 -22 104 -41 116 -7 4 -13 13 -13 18 0
6 10 3 22 -5 28 -20 58 -22 40 -4 -16 16 -15 28 2 28 10 0 16 -18 21 -62z
m143 -29 c10 -16 8 -19 -23 -25 -19 -3 -42 -3 -51 0 -14 5 -15 4 -4 -9 10 -13
10 -19 -4 -34 -23 -25 -33 -91 -15 -92 8 0 3 -5 -10 -10 -19 -7 -22 -15 -19
-39 3 -17 -1 -35 -8 -40 -18 -16 -22 8 -12 70 18 109 20 120 29 126 5 3 9 27
9 53 0 26 3 50 6 54 9 9 89 -33 102 -54z m752 -10 c-19 -15 -41 -29 -49 -29
-17 0 -15 2 35 40 49 36 60 28 14 -11z m-970 -24 c14 -17 25 -123 17 -157 -4
-12 -19 -30 -35 -39 -27 -15 -30 -15 -40 2 -7 10 -12 41 -12 69 0 46 3 52 28
62 26 11 26 12 5 15 -26 5 -28 15 -11 43 15 24 31 25 48 5z m785 -38 c11 -3
22 -6 25 -7 23 -4 -156 -59 -197 -60 -8 0 -6 12 5 41 l17 40 65 -4 c36 -2 74
-7 85 -10z m-1518 -12 c7 -19 54 -45 81 -45 12 0 26 -15 40 -44 35 -69 27 -97
-22 -75 -14 7 -32 8 -43 4 -10 -5 -37 -14 -60 -20 -39 -11 -42 -10 -47 9 -13
47 -6 149 11 168 20 22 32 23 40 3z m1133 0 c0 -8 -4 -15 -10 -15 -5 0 -10 7
-10 15 0 8 5 15 10 15 6 0 10 -7 10 -15z m-1220 -10 c-7 -8 -20 -15 -29 -15
-13 1 -13 3 3 15 26 19 42 19 26 0z m-70 -19 c0 -2 -7 -6 -15 -10 -8 -3 -15
-1 -15 4 0 6 7 10 15 10 8 0 15 -2 15 -4z m1270 -112 c45 -45 45 -45 23 -62
-20 -16 -28 -33 -68 -132 -10 -25 -27 -64 -37 -87 -22 -52 -25 -91 -3 -53 8
14 14 19 14 10 0 -21 -22 -59 -34 -58 -5 1 -17 -12 -25 -28 -37 -70 -41 -72
-36 -24 4 41 51 268 75 365 5 22 13 57 16 78 3 20 11 37 18 37 7 0 32 -21 57
-46z m60 37 c0 -6 -4 -13 -10 -16 -5 -3 -10 1 -10 9 0 9 5 16 10 16 6 0 10 -4
10 -9z m203 -57 c86 -25 99 -32 104 -54 3 -14 12 -34 19 -45 16 -22 18 -54 5
-74 -10 -15 -51 -6 -51 12 0 8 3 8 12 -1 15 -15 28 -16 28 -2 0 5 -22 21 -49
34 -26 14 -73 48 -102 76 -30 28 -64 58 -76 67 -27 18 -31 37 -5 24 9 -5 61
-22 115 -37z m-623 -40 c0 -8 -4 -12 -10 -9 -5 3 -10 10 -10 16 0 5 5 9 10 9
6 0 10 -7 10 -16z m-826 -29 c23 -77 44 -125 56 -125 19 0 10 -27 -28 -78
l-39 -52 -20 23 c-11 12 -28 34 -38 49 -17 27 -16 28 9 59 28 33 32 62 16 105
-6 15 -8 34 -5 41 9 24 39 10 49 -22z m166 25 c0 -5 -4 -10 -10 -10 -5 0 -10
5 -10 10 0 6 5 10 10 10 6 0 10 -4 10 -10z m717 -32 c-3 -8 -6 -5 -6 6 -1 11
2 17 5 13 3 -3 4 -12 1 -19z m-1097 -2 c0 -8 -5 -18 -11 -22 -14 -8 -33 11
-25 25 10 16 36 13 36 -3z m316 -12 c-5 -14 -9 -15 -19 -5 -9 9 -9 14 3 21 18
11 24 6 16 -16z m-400 -29 c-8 -8 -18 -15 -22 -15 -3 0 -1 7 6 15 7 8 17 15
22 15 5 0 3 -7 -6 -15z m1039 -7 c4 -11 18 -31 31 -43 26 -24 44 -95 44 -173
0 -50 -16 -48 -22 3 -2 17 -10 41 -17 54 -11 20 -11 25 0 32 11 8 10 12 -5 24
-10 7 -15 18 -12 24 4 6 -4 31 -18 56 -14 25 -21 45 -16 45 5 0 12 -10 15 -22z
m-547 -68 c-26 -36 -57 -68 -80 -80 -21 -11 -38 -16 -38 -12 0 17 128 141 157
151 1 1 -17 -26 -39 -59z m1248 23 c22 -21 61 -50 87 -65 26 -16 50 -35 54
-44 10 -28 77 -83 99 -84 23 0 114 -47 114 -59 0 -4 -19 -25 -42 -47 -39 -37
-83 -92 -83 -104 0 -3 -23 -28 -51 -55 -27 -28 -55 -62 -62 -77 -6 -15 -26
-44 -45 -65 -19 -21 -47 -60 -62 -87 -16 -27 -55 -79 -86 -114 -32 -35 -60
-76 -64 -90 -4 -15 -23 -45 -44 -67 -20 -22 -46 -55 -56 -73 -11 -17 -22 -32
-25 -32 -7 0 -50 56 -50 66 0 4 -11 17 -25 30 -14 13 -25 33 -25 44 0 12 -4
19 -8 16 -4 -2 -9 14 -10 37 -2 45 25 140 64 224 13 29 26 65 30 80 7 34 41
140 53 168 5 11 24 58 42 105 18 47 37 89 41 95 4 5 8 17 8 27 0 24 59 168 78
191 20 23 22 23 68 -20z m-1386 -152 c0 -5 -7 -11 -15 -15 -15 -5 -20 5 -8 17
9 10 23 9 23 -2z m2005 -19 c5 -4 17 -7 25 -7 8 -1 41 -5 74 -9 69 -10 59 -22
-27 -32 -40 -5 -68 -14 -87 -30 -15 -13 -30 -24 -33 -24 -9 0 -112 65 -115 73
-2 4 -11 7 -20 7 -13 0 -11 5 8 21 22 17 34 19 95 14 38 -4 74 -10 80 -13z
m-187 -41 c22 -19 28 -31 15 -31 -16 1 -68 50 -53 50 8 -1 25 -9 38 -19z
m-788 -6 c0 -8 -4 -15 -10 -15 -5 0 -7 7 -4 15 4 8 8 15 10 15 2 0 4 -7 4 -15z
m-848 -33 c-18 -15 -32 -31 -32 -35 0 -5 -18 -29 -40 -54 -22 -25 -40 -50 -40
-54 0 -5 -4 -9 -10 -9 -19 0 -10 29 18 62 44 52 116 118 127 118 5 0 -5 -13
-23 -28z m560 -64 c-7 -7 -9 5 -7 33 3 58 7 63 12 15 3 -21 0 -43 -5 -48z
m-53 -45 c-10 -31 -19 -68 -19 -82 -1 -42 -35 -106 -71 -133 -48 -36 -188 -98
-219 -98 -51 0 16 88 87 115 75 28 133 56 133 65 0 11 -41 0 -60 -15 -15 -12
-80 -26 -80 -17 0 7 61 79 100 118 19 20 53 45 75 56 22 11 44 27 48 34 20 35
24 9 6 -43z m51 18 c0 -6 -4 -13 -10 -16 -5 -3 -10 1 -10 9 0 9 5 16 10 16 6
0 10 -4 10 -9z m1544 -1 c17 -5 65 -19 106 -30 41 -12 81 -23 89 -26 27 -9
-81 -83 -153 -105 -95 -30 -101 -25 -102 85 -1 94 0 95 60 76z m-313 -65 c24
-30 63 -69 87 -86 36 -26 48 -30 66 -21 17 8 28 6 47 -9 20 -15 21 -19 7 -19
-22 0 -23 -28 -3 -50 14 -16 8 -25 -75 -109 -134 -137 -323 -363 -354 -423
-16 -30 -98 -128 -108 -128 -3 0 -6 34 -6 75 0 40 -3 93 -6 117 -4 24 -8 86
-11 139 -2 52 -11 115 -20 139 -15 42 -15 44 8 69 13 14 38 46 54 71 35 51
140 152 202 192 32 22 41 34 41 56 0 28 7 42 20 42 4 0 27 -25 51 -55z m-1070
-71 c-58 -167 -59 -168 -119 -138 -30 14 -72 63 -72 81 1 4 16 25 34 46 l33
37 27 -21 c38 -30 67 -15 102 55 15 30 29 54 31 53 1 -2 -15 -53 -36 -113z
m-1411 56 c0 -5 -2 -10 -4 -10 -3 0 -8 5 -11 10 -3 6 -1 10 4 10 6 0 11 -4 11
-10z m-387 -82 c-15 -27 -109 -145 -145 -183 -16 -17 34 76 70 130 44 66 62
85 79 85 11 0 10 -7 -4 -32z m1597 3 c0 -5 -6 -14 -14 -20 -12 -10 -13 -8 -9
8 5 21 23 30 23 12z m-29 -69 c-15 -28 -163 -166 -214 -200 -55 -36 -109 -48
-150 -33 -37 15 -27 28 28 37 25 3 71 17 103 31 31 13 65 27 75 30 9 3 17 9
17 14 0 5 12 15 28 23 15 8 45 39 67 69 22 30 43 53 48 50 4 -2 3 -12 -2 -21z
m-1707 -49 c-18 -31 -43 -66 -54 -78 -11 -12 -20 -25 -20 -30 0 -11 -31 -45
-42 -45 -4 0 -8 9 -8 20 0 11 5 20 10 20 6 0 10 5 10 11 0 13 121 159 131 159
4 0 -8 -26 -27 -57z m3531 -4 c15 -14 -7 -10 -35 7 l-25 15 25 -7 c14 -3 29
-10 35 -15z m-1955 -23 c0 -2 -25 -18 -56 -36 -39 -22 -60 -28 -67 -21 -7 7
-1 14 19 22 68 27 74 30 102 38 1 1 2 -1 2 -3z m-1000 -56 c0 -5 -7 -10 -15
-10 -8 0 -15 5 -15 10 0 6 7 10 15 10 8 0 15 -4 15 -10z m854 -9 c4 -5 -17
-14 -44 -20 -64 -14 -73 -14 -65 0 15 24 98 39 109 20z m-878 -56 c10 -8 14
-15 7 -15 -19 0 -43 11 -43 21 0 13 14 11 36 -6z m130 -7 c16 -17 16 -20 3
-15 -9 3 -21 1 -27 -5 -13 -13 -26 7 -18 27 8 21 20 19 42 -7z m1939 -147 c7
-64 16 -172 20 -241 l7 -126 -69 -79 c-81 -93 -173 -188 -177 -183 -2 2 -13
28 -24 58 -23 62 -58 133 -85 170 -28 40 -25 49 58 188 6 9 24 40 40 67 16 28
45 73 64 100 19 28 50 73 68 100 66 101 65 100 76 80 5 -10 15 -70 22 -134z
m-1945 88 c0 -5 -4 -9 -10 -9 -5 0 -10 7 -10 16 0 8 5 12 10 9 6 -3 10 -10 10
-16z m-880 -3 c0 -25 -12 -46 -26 -46 -17 0 -17 1 -4 34 10 28 30 35 30 12z
m788 -9 c4 -21 -25 -34 -40 -19 -8 8 -8 16 2 27 16 19 34 15 38 -8z m-118 -82
c11 -13 10 -18 -6 -30 -17 -12 -21 -12 -31 2 -7 8 -10 29 -7 47 10 55 16 63
24 29 4 -18 13 -40 20 -48z m50 -64 c5 -11 7 -27 4 -35 -8 -22 -32 -20 -30 2
1 12 -5 16 -21 14 -13 -2 -23 0 -23 5 0 8 35 29 52 32 4 0 12 -8 18 -18z m120
-58 c-1 -27 -1 -27 -15 -9 -14 19 -12 36 6 36 5 0 9 -12 9 -27z m-70 -55 c0
-15 -32 -8 -57 12 l-25 20 23 9 c19 7 27 5 41 -12 10 -12 18 -25 18 -29z m24
-94 c9 -23 -22 -29 -44 -9 -11 10 -17 21 -15 25 7 12 53 -1 59 -16z m1811
-443 c4 -17 5 -31 2 -31 -2 0 -21 39 -42 88 -20 48 -48 108 -61 133 -13 25
-20 49 -16 53 8 8 107 -196 117 -243z m228 -26 c4 -8 2 -40 -3 -72 -6 -32 -10
-87 -11 -123 0 -91 -11 -145 -29 -145 -20 0 -56 66 -81 150 -50 166 -47 155
-32 155 8 0 23 -5 34 -11 14 -7 24 -7 33 0 7 6 15 8 18 5 3 -3 16 8 29 25 27
34 35 37 42 16z m-88 -505 c8 -30 15 -67 15 -82 l0 -28 -33 37 c-18 21 -44 53
-56 71 l-23 32 31 29 c17 16 31 35 32 43 1 7 5 0 10 -17 4 -16 15 -55 24 -85z
m34 20 c0 -50 -15 -18 -21 45 -5 48 -5 49 8 20 7 -16 13 -46 13 -65z"/>
<path d="M2960 7565 c0 -3 10 -16 23 -31 28 -33 156 -302 156 -331 1 -13 6
-23 11 -23 15 0 12 53 -5 77 -8 11 -22 47 -30 80 -8 32 -24 65 -35 75 -11 9
-20 28 -20 42 0 15 -7 29 -15 32 -8 4 -15 14 -15 23 0 26 -29 61 -51 61 -10 0
-19 -2 -19 -5z"/>
<path d="M2265 7180 c-3 -5 1 -10 9 -10 8 0 18 5 21 10 3 6 -1 10 -9 10 -8 0
-18 -4 -21 -10z"/>
<path d="M1010 7353 c0 -10 11 -40 24 -68 30 -62 36 -29 6 39 -20 48 -30 58
-30 29z"/>
<path d="M928 6843 c7 -3 16 -2 19 1 4 3 -2 6 -13 5 -11 0 -14 -3 -6 -6z"/>
<path d="M840 6820 c-8 -5 -10 -10 -5 -10 6 0 17 5 25 10 8 5 11 10 5 10 -5 0
-17 -5 -25 -10z"/>
<path d="M765 6790 c-3 -6 1 -7 9 -4 18 7 21 14 7 14 -6 0 -13 -4 -16 -10z"/>
<path d="M830 6788 c-14 -6 -40 -18 -57 -26 -21 -9 -33 -21 -33 -33 0 -11 3
-19 8 -19 11 1 42 26 37 32 -2 2 12 10 32 18 41 14 75 41 51 39 -7 0 -24 -5
-38 -11z"/>
<path d="M4060 6750 c16 -29 7 -107 -20 -178 -23 -59 -24 -72 -10 -72 6 0 13
14 17 30 3 17 10 33 14 36 5 3 9 14 9 24 0 11 7 40 15 64 14 41 14 49 0 75 -8
16 -20 33 -26 37 -7 4 -7 -1 1 -16z"/>
<path d="M864 6749 c-2 -4 -13 -5 -24 -2 -13 3 -20 0 -20 -8 0 -8 -3 -24 -6
-36 -5 -18 -2 -23 14 -23 24 0 38 16 20 23 -17 6 20 36 45 37 9 0 17 4 17 9 0
11 -39 10 -46 0z"/>
<path d="M10465 6744 c-12 -4 -121 -20 -258 -38 -116 -15 -153 -36 -63 -36 31
0 76 4 99 10 70 16 425 39 527 33 133 -7 324 -29 395 -47 33 -8 80 -19 105
-25 74 -18 197 -83 210 -111 7 -14 19 -37 26 -52 8 -14 14 -36 14 -47 0 -24
-66 -101 -86 -101 -8 0 -14 -7 -14 -15 0 -30 45 -11 103 43 20 20 37 42 37 49
0 25 17 13 46 -32 15 -25 32 -45 36 -45 4 0 8 -6 8 -14 0 -8 19 -38 43 -68 45
-56 60 -79 76 -115 6 -12 42 -66 81 -120 38 -54 70 -103 70 -110 0 -7 9 -29
21 -50 54 -96 70 -135 90 -213 20 -78 20 -85 5 -111 -18 -31 -21 -59 -5 -59
18 0 39 68 39 128 0 73 -23 153 -61 213 -16 25 -29 51 -29 57 0 6 -13 31 -30
55 -16 25 -30 47 -30 50 0 11 -93 142 -121 171 -16 17 -29 35 -29 41 0 6 -16
34 -35 61 -19 27 -35 53 -35 58 0 6 -11 21 -24 35 -13 15 -38 54 -56 88 -17
34 -43 71 -57 83 -14 11 -22 20 -19 20 9 0 -52 80 -74 97 -8 7 -31 12 -50 11
-20 -1 -51 6 -70 15 -19 8 -46 18 -60 21 -14 3 -59 14 -100 25 -115 31 -320
50 -528 49 -103 -1 -191 -2 -197 -4z"/>
<path d="M9974 6668 c-96 -7 -173 -25 -147 -35 20 -7 236 16 247 27 5 5 8 11
5 13 -2 1 -50 -1 -105 -5z"/>
<path d="M835 6650 c-3 -5 -1 -10 4 -10 6 0 11 5 11 10 0 6 -2 10 -4 10 -3 0
-8 -4 -11 -10z"/>
<path d="M3991 6452 c-12 -17 -21 -33 -21 -36 0 -4 -20 -37 -45 -73 -25 -36
-48 -76 -51 -89 -4 -13 -10 -24 -15 -24 -5 0 -12 -8 -16 -17 -3 -10 -18 -34
-33 -53 -15 -19 -30 -42 -34 -50 -12 -27 -30 -54 -93 -141 -34 -48 -70 -106
-82 -130 l-20 -44 5 45 5 45 -31 -65 c-17 -36 -34 -77 -37 -93 -3 -15 -10 -30
-14 -33 -5 -3 -9 -13 -9 -22 0 -9 -7 -29 -14 -44 -8 -16 -27 -62 -41 -104 -14
-42 -35 -95 -45 -118 -36 -81 -81 -235 -78 -268 l3 -33 17 45 c9 25 22 67 29
93 6 26 14 46 16 43 2 -2 -2 -28 -9 -57 -18 -74 -6 -323 16 -348 9 -10 16 -21
16 -25 0 -17 54 -86 68 -86 13 0 13 2 0 18 -31 35 -66 111 -78 168 -17 78 -6
255 21 359 12 44 25 99 30 122 4 24 18 66 30 95 29 73 140 298 150 303 4 3 10
19 14 35 4 17 10 30 13 30 4 0 18 17 32 38 14 20 28 39 31 42 3 3 14 21 24 40
10 19 45 75 78 125 34 49 72 108 85 130 14 22 33 52 43 66 29 44 72 130 66
135 -2 3 -14 -8 -26 -24z"/>
<path d="M3798 6328 c-8 -13 -33 -57 -55 -98 -123 -229 -143 -271 -142 -302 0
-33 0 -33 11 -8 59 136 152 322 190 378 15 24 28 45 28 48 0 12 -19 1 -32 -18z"/>
<path d="M4950 6111 c0 -34 85 -140 114 -141 5 0 -10 20 -33 45 -22 24 -41 51
-41 59 0 7 -9 24 -20 37 l-19 24 -1 -24z"/>
<path d="M2770 6037 c0 -25 5 -40 15 -43 10 -4 13 -13 10 -25 -4 -11 -2 -19 4
-19 17 0 13 43 -9 86 l-19 39 -1 -38z"/>
<path d="M2843 5834 c-6 -16 22 -53 32 -42 9 8 -6 58 -16 58 -5 0 -12 -7 -16
-16z"/>
<path d="M2870 5777 c0 -16 34 -97 40 -97 20 0 19 22 -2 60 -19 33 -38 51 -38
37z"/>
<path d="M4830 5763 c0 -5 5 -15 10 -23 8 -12 10 -11 10 8 0 12 -4 22 -10 22
-5 0 -10 -3 -10 -7z"/>
<path d="M4840 5460 c0 -57 2 -101 4 -99 7 7 9 189 2 196 -3 3 -6 -40 -6 -97z"/>
<path d="M3761 4804 c-12 -15 -21 -40 -21 -56 0 -16 -4 -37 -9 -46 -10 -19
-33 -276 -35 -382 -1 -59 -3 -66 -27 -77 -52 -25 -71 -21 -93 21 l-21 38 22
17 c12 9 34 25 49 35 17 12 23 21 16 24 -7 2 -18 -1 -25 -6 -7 -5 -38 -24 -70
-41 -59 -32 -107 -40 -107 -18 0 15 -81 107 -94 107 -5 0 -17 7 -27 16 -15 14
-17 27 -12 81 5 54 4 65 -8 61 -8 -3 -15 -21 -16 -44 -4 -56 -21 -93 -64 -140
-20 -23 -40 -54 -43 -71 -5 -22 -16 -32 -43 -42 -20 -8 -57 -32 -82 -55 -25
-23 -63 -54 -83 -69 -25 -18 -38 -36 -38 -51 0 -27 -85 -116 -111 -116 -10 0
-34 -13 -52 -30 -42 -37 -55 -38 -63 -5 -8 33 -27 27 -29 -9 0 -21 -18 -44
-70 -92 -38 -35 -73 -64 -77 -64 -4 0 -58 -44 -121 -97 -121 -105 -171 -143
-186 -143 -5 0 -34 -29 -65 -64 -55 -62 -56 -64 -56 -126 0 -53 5 -69 32 -111
17 -27 35 -49 40 -49 4 0 8 -8 8 -19 0 -10 7 -25 16 -32 9 -8 28 -31 41 -52
27 -43 39 -49 140 -72 56 -12 77 -14 93 -5 32 17 55 -8 107 -117 25 -51 49
-95 53 -98 4 -3 22 -33 39 -68 17 -34 42 -80 55 -102 14 -22 25 -45 26 -52 0
-15 96 -171 121 -199 10 -11 19 -23 19 -27 0 -3 14 -26 30 -51 25 -36 39 -47
68 -52 20 -4 42 -10 47 -14 10 -8 119 -42 200 -62 61 -16 192 -66 213 -81 6
-5 12 -26 12 -47 0 -23 5 -40 14 -43 17 -7 56 19 56 37 0 18 37 49 49 42 5 -4
15 -32 21 -64 14 -66 43 -127 64 -135 27 -10 118 69 182 159 18 25 23 27 38
15 9 -7 16 -20 16 -27 0 -11 10 -13 43 -8 58 9 92 36 113 89 15 40 15 48 2 76
-12 23 -13 41 -6 72 10 45 3 87 -15 100 -8 5 -8 10 -2 13 42 18 76 47 73 62
-4 20 -22 20 -103 -2 -56 -16 -135 -14 -135 2 0 12 67 61 93 67 14 4 28 13 31
21 8 20 -22 30 -43 16 -9 -7 -27 -17 -40 -22 -13 -6 -39 -24 -58 -40 -19 -17
-42 -30 -53 -30 -21 0 -50 25 -50 45 0 7 -9 23 -19 36 -16 19 -22 21 -32 12
-10 -10 -10 -22 0 -60 7 -27 15 -58 18 -70 4 -18 -5 -26 -70 -57 -41 -20 -80
-36 -86 -36 -7 0 -34 19 -60 41 -44 38 -75 54 -153 79 -15 4 -42 20 -61 34
-19 14 -38 26 -43 26 -6 0 -35 22 -65 48 -62 56 -120 86 -147 78 -14 -5 -22 2
-35 29 -9 20 -17 40 -17 45 0 5 -11 33 -24 62 -13 29 -27 60 -30 68 -31 77
-106 178 -206 280 -80 82 -96 102 -105 130 -4 14 -14 34 -21 45 -8 11 -14 26
-14 35 0 8 -5 32 -10 52 -8 26 -17 38 -33 40 -12 2 -22 7 -22 12 0 9 108 40
220 64 131 27 214 61 430 176 17 9 56 27 87 41 32 15 60 30 63 35 3 4 29 22
59 38 29 17 77 53 105 81 32 31 67 54 90 61 24 6 46 21 56 37 l18 27 26 -30
c14 -16 37 -37 51 -45 37 -23 137 -59 164 -59 29 0 49 -31 93 -145 38 -97 53
-150 53 -190 0 -51 65 -220 93 -244 9 -7 28 -38 42 -68 26 -58 121 -158 199
-213 23 -15 70 -63 106 -106 35 -44 74 -90 87 -103 13 -13 23 -30 23 -37 0 -7
13 -28 29 -46 64 -75 84 -119 89 -198 5 -90 17 -123 53 -144 40 -24 108 -109
115 -145 4 -17 11 -34 15 -37 5 -3 9 -15 9 -27 -1 -25 114 -384 139 -435 31
-64 67 -17 38 50 -20 47 -113 338 -137 427 -23 87 -53 136 -127 206 l-54 52
-11 94 c-10 91 -34 159 -61 176 -42 26 -114 145 -131 217 -6 22 -11 27 -28 23
-15 -4 -34 6 -69 40 -27 25 -71 61 -98 79 -27 18 -70 61 -96 95 -44 58 -125
184 -125 194 0 3 -13 31 -28 63 -16 33 -34 88 -41 123 -16 87 -58 221 -76 245
-20 27 -18 51 6 64 26 14 19 22 -21 25 -17 2 -32 4 -33 6 -2 2 -12 24 -24 49
-36 77 -46 120 -40 172 6 44 5 47 -9 33 -18 -18 -26 -14 -80 44 -58 63 -67
193 -31 446 15 107 22 130 44 157 15 16 10 38 -7 38 -5 0 -18 -12 -29 -26z
m-229 -547 c-4 -37 -5 -37 -23 -21 -25 23 -24 39 4 51 12 6 22 10 23 9 1 0 -1
-18 -4 -39z m-452 -57 c-29 -28 -55 -49 -57 -47 -9 10 13 40 50 67 63 46 66
36 7 -20z m654 -50 c10 -22 60 -63 87 -72 11 -4 69 -143 69 -168 0 -17 -4 -17
-62 -4 -54 13 -71 23 -121 72 -71 69 -86 97 -90 158 -2 45 0 49 38 75 l40 28
13 -32 c8 -18 19 -43 26 -57z m-667 -59 c7 -11 25 -26 40 -33 17 -8 27 -21 26
-32 -1 -15 4 -17 27 -12 29 5 115 -18 125 -34 6 -9 -40 -31 -157 -77 -68 -27
-86 -43 -48 -43 20 0 20 -1 4 -25 -9 -14 -22 -25 -29 -25 -7 0 -18 -6 -25 -14
-6 -8 -21 -16 -32 -18 -12 -2 -23 -9 -26 -15 -6 -21 25 -26 59 -9 18 9 39 16
47 16 17 0 168 56 192 71 14 9 49 25 95 44 18 8 17 9 -8 13 -17 2 -36 -3 -45
-11 -19 -17 -94 -46 -132 -52 -13 -2 -26 -9 -28 -14 -4 -13 -52 -15 -52 -2 0
14 86 73 159 109 61 30 66 31 94 17 17 -8 40 -15 51 -16 12 0 15 -3 9 -6 -20
-7 -15 -23 7 -23 10 0 24 8 29 18 6 9 10 13 11 7 0 -5 -4 -15 -8 -20 -12 -17
-149 -125 -157 -125 -5 0 -16 -6 -24 -13 -9 -8 -32 -20 -51 -27 -19 -8 -50
-24 -68 -36 -36 -25 -68 -40 -222 -106 -138 -60 -165 -69 -229 -78 -78 -12
-153 -30 -178 -42 -31 -15 -72 -2 -83 27 -5 14 -17 25 -26 25 -9 0 -29 9 -46
21 -28 20 -28 22 -12 40 10 11 60 52 112 91 52 39 122 97 156 128 118 109 164
137 181 110 12 -20 96 -6 180 30 11 5 44 16 72 25 53 17 78 35 48 35 -9 0 -26
-5 -38 -11 -22 -13 -160 -49 -183 -49 -34 0 21 71 76 100 19 10 43 28 52 39
22 26 40 27 55 2z m-647 -600 l35 -30 -22 -22 c-20 -21 -25 -21 -62 -10 -30 8
-42 18 -47 36 -15 61 38 75 96 26z m-130 -10 c0 -19 10 -40 28 -58 25 -25 27
-32 19 -63 -5 -19 -10 -51 -11 -70 -1 -28 4 -37 26 -47 14 -7 38 -34 53 -59
31 -52 25 -68 -33 -83 -31 -9 -39 -7 -72 19 -23 18 -40 42 -43 60 -7 32 0 60
14 60 12 0 48 -42 63 -72 6 -12 20 -24 31 -27 17 -3 15 2 -10 35 -16 22 -41
50 -56 64 -16 14 -29 36 -31 50 -2 14 -7 25 -13 24 -5 0 -18 9 -27 20 -22 27
-24 0 -3 -28 30 -40 8 -124 -29 -110 -9 3 -16 14 -16 24 0 10 -10 39 -21 65
-24 54 -21 124 6 151 13 14 15 12 15 -14 0 -38 9 -64 20 -57 5 3 6 21 3 40 -5
31 -1 39 31 70 46 43 56 44 56 6z m214 -105 c21 -45 21 -139 0 -157 -14 -11
-19 -9 -35 11 -10 14 -21 33 -25 43 -3 9 -13 17 -23 17 -21 0 -41 19 -41 40 0
19 69 79 91 80 9 0 24 -15 33 -34z m106 -180 c0 -10 33 -53 74 -95 88 -90 146
-156 146 -165 0 -3 14 -25 30 -48 17 -22 30 -47 30 -55 0 -7 13 -41 29 -76 16
-34 34 -82 41 -107 6 -25 19 -59 27 -76 8 -18 13 -40 11 -50 -4 -22 -28 -31
-28 -10 0 25 -23 19 -59 -16 -27 -27 -32 -29 -30 -13 6 36 -10 77 -27 71 -9
-3 -21 0 -28 7 -47 48 -216 317 -216 344 0 7 -21 54 -46 103 -41 80 -46 96
-41 138 2 26 12 65 22 86 l17 39 23 -29 c14 -16 24 -38 25 -48z m-142 -1 c-3
-3 -9 2 -12 12 -6 14 -5 15 5 6 7 -7 10 -15 7 -18z m2 -124 c0 -19 -29 -33
-47 -22 -16 9 -16 11 7 20 32 13 40 13 40 2z m620 -516 c7 -8 17 -15 22 -15 6
0 32 -18 58 -40 49 -41 103 -71 210 -115 77 -32 113 -62 106 -88 -2 -11 4 -25
14 -35 23 -19 34 -85 22 -127 -11 -37 -30 -35 -81 5 -20 16 -54 33 -76 39 -41
10 -217 70 -223 76 -11 11 22 45 43 45 37 0 32 31 -18 122 -48 88 -80 128
-102 128 -8 0 -15 5 -15 10 0 15 26 12 40 -5z m-40 -111 c0 -8 -4 -12 -10 -9
-5 3 -10 13 -10 21 0 8 5 12 10 9 6 -3 10 -13 10 -21z m79 -23 c34 -43 38 -53
17 -45 -18 7 -70 84 -57 84 5 0 23 -18 40 -39z m-135 -10 c44 -39 55 -101 17
-101 -36 0 -103 93 -86 120 8 13 43 3 69 -19z m924 -37 c28 -6 28 -19 -3 -80
-14 -27 -25 -55 -25 -62 0 -42 -120 -240 -134 -221 -1 2 2 56 7 119 5 63 10
144 11 180 2 36 3 69 4 73 2 8 86 2 140 -9z m-838 -39 c16 -17 19 -25 9 -25
-15 1 -56 50 -41 50 5 0 19 -11 32 -25z m938 -12 c2 -51 -9 -67 -42 -59 -24 6
-25 9 -15 29 8 16 43 58 55 66 0 1 1 -16 2 -36z m-294 -1 c10 -29 4 -134 -9
-187 -7 -27 -16 -72 -20 -100 -13 -98 -26 -107 -45 -32 -6 23 -24 71 -40 107
-39 87 -47 141 -25 160 25 21 108 68 122 69 6 1 14 -7 17 -17z"/>
<path d="M2898 3852 c-56 -55 -19 -68 86 -29 59 22 85 47 48 47 -26 0 -85 -21
-95 -34 -5 -6 -7 1 -4 17 5 33 0 33 -35 -1z"/>
<path d="M2930 2560 c0 -5 5 -10 11 -10 5 0 7 5 4 10 -3 6 -8 10 -11 10 -2 0
-4 -4 -4 -10z"/>
<path d="M4742 4643 c-6 -16 -14 -39 -17 -53 l-7 -25 16 22 c16 21 33 83 23
83 -2 0 -9 -12 -15 -27z"/>
<path d="M4676 4490 c-19 -39 -49 -89 -66 -111 -18 -21 -30 -44 -28 -50 6 -17
74 81 110 157 42 89 28 92 -16 4z"/>
<path d="M7584 3115 c-7 -19 -14 -37 -14 -40 0 -22 -51 -110 -94 -165 -29 -36
-67 -85 -84 -110 -70 -100 -382 -422 -753 -780 -100 -96 -194 -193 -208 -215
-14 -22 -38 -56 -52 -75 -14 -19 -45 -70 -68 -112 -41 -75 -42 -79 -43 -175 0
-87 -4 -103 -28 -148 -63 -114 -64 -114 -87 -109 -27 7 -43 -20 -43 -71 0 -20
-7 -49 -15 -66 -20 -38 -11 -53 27 -45 25 5 36 -1 76 -38 43 -41 45 -46 34
-70 l-12 -26 -187 0 c-132 0 -184 -3 -176 -11 5 -5 25 -10 44 -11 19 0 90 0
159 0 179 -1 194 -2 207 -11 29 -18 128 -27 183 -16 89 18 110 33 110 78 0 49
3 50 155 61 190 14 255 22 261 32 15 23 -27 22 -261 -12 -38 -6 -82 -8 -97 -4
-24 5 -26 9 -21 40 5 29 -2 47 -42 112 -67 107 -66 136 2 227 28 39 66 84 83
100 28 27 60 74 60 90 0 14 -27 2 -66 -30 -45 -37 -70 -45 -60 -20 3 9 12 44
21 78 8 34 23 78 32 97 33 68 87 155 102 164 9 5 43 35 76 66 33 31 73 64 88
74 27 17 81 62 202 170 33 29 89 78 125 107 69 57 460 445 460 457 0 4 30 39
68 77 103 107 131 178 86 216 -25 20 -122 -56 -100 -78 3 -4 16 3 29 15 30 28
57 29 57 1 0 -22 -123 -160 -305 -343 -61 -61 -122 -124 -137 -141 -14 -16
-64 -66 -110 -110 -75 -71 -135 -122 -396 -335 -37 -31 -91 -70 -119 -89 -77
-48 -161 -143 -168 -189 -3 -20 -11 -55 -16 -77 -41 -159 -48 -194 -49 -225
-1 -23 -10 -46 -29 -69 l-29 -33 -21 47 c-12 26 -21 54 -21 62 0 8 28 48 62
89 57 69 60 76 48 99 -11 20 -10 30 4 65 9 22 16 45 16 50 0 19 -19 10 -26
-12 -3 -12 -19 -42 -34 -67 -18 -30 -27 -55 -24 -71 4 -19 -5 -36 -38 -70 -33
-35 -43 -41 -46 -28 -2 9 1 26 7 36 7 14 7 29 -1 50 -10 27 -8 36 26 92 108
182 203 288 312 348 29 16 31 30 4 40 -19 7 -16 11 26 47 25 22 56 51 68 64
11 12 32 33 46 45 14 11 69 65 123 119 54 53 102 97 107 97 5 0 12 9 15 21 4
11 62 75 130 142 68 67 134 138 147 157 12 19 49 67 81 106 31 39 57 75 57 80
0 5 10 27 22 49 18 34 68 152 68 162 0 2 -5 3 -11 3 -5 0 -17 -16 -25 -35z
m-1184 -1770 c7 -9 16 -32 20 -53 5 -20 16 -77 26 -127 9 -49 21 -94 25 -98 4
-5 16 -4 27 2 21 11 45 -1 55 -31 14 -41 -48 -46 -151 -12 -61 20 -89 17 -118
-11 -28 -28 -42 -25 -83 19 -23 24 -23 28 -11 71 7 25 20 56 30 68 9 12 31 48
49 80 18 32 49 68 69 82 43 29 46 30 62 10z"/>
<path d="M6551 1784 c0 -11 3 -14 6 -6 3 7 2 16 -1 19 -3 4 -6 -2 -5 -13z"/>
<path d="M10370 1744 c-80 -13 -170 -29 -200 -34 -30 -6 -98 -14 -150 -17 -52
-3 -101 -10 -108 -16 -7 -5 -29 -13 -50 -17 -62 -13 -195 -41 -232 -50 -78
-18 -147 -31 -190 -35 -31 -3 -50 -12 -62 -27 -9 -13 -16 -24 -15 -25 2 -1 23
4 47 12 25 7 79 20 120 30 41 9 83 18 93 21 9 3 17 1 17 -4 0 -5 -12 -12 -27
-15 -35 -7 -105 -23 -158 -35 -62 -14 -145 -43 -151 -53 -8 -13 25 -10 71 6
22 8 49 15 60 15 11 0 38 9 60 20 22 11 50 19 62 20 28 0 102 21 218 60 49 16
104 30 120 30 17 0 35 4 41 9 5 6 45 15 89 20 89 12 202 28 255 36 19 3 90 11
158 19 68 8 126 16 129 20 12 12 -8 36 -29 35 -13 -1 -88 -12 -168 -25z"/>
<path d="M11020 1602 c0 -10 36 -9 46 1 4 4 -5 7 -19 7 -15 0 -27 -4 -27 -8z"/>
<path d="M11105 1600 c4 -6 11 -8 16 -5 14 9 11 15 -7 15 -8 0 -12 -5 -9 -10z"/>
<path d="M10720 1580 c0 -12 106 -11 135 1 13 5 -8 8 -57 8 -46 1 -78 -3 -78
-9z"/>
<path d="M10591 1576 c12 -10 60 -16 54 -6 -3 5 -18 10 -32 10 -15 0 -24 -2
-22 -4z"/>
<path d="M10410 1553 c0 -12 68 -14 75 -3 4 6 -10 10 -34 10 -23 0 -41 -3 -41
-7z"/>
<path d="M9247 1543 c-11 -11 -8 -35 3 -28 6 4 17 2 25 -5 11 -9 16 -7 24 9 6
11 11 22 11 25 0 8 -55 7 -63 -1z"/>
<path d="M10204 1524 c-18 -14 -18 -15 6 -7 14 4 37 8 53 8 44 3 44 15 1 15
-22 0 -49 -7 -60 -16z"/>
<path d="M10088 1523 c-10 -2 -18 -9 -18 -15 0 -5 7 -7 16 -4 9 3 29 6 45 6
16 0 29 5 29 10 0 10 -40 12 -72 3z"/>
<path d="M9148 1504 c-14 -14 -8 -32 12 -37 11 -3 20 -1 20 4 0 5 -4 9 -9 9
-5 0 -11 7 -13 16 -2 9 -6 12 -10 8z"/>
<path d="M9014 1475 c-10 -8 -29 -15 -41 -15 -13 0 -23 -5 -23 -10 0 -6 11 -8
25 -4 27 7 33 -7 12 -24 -18 -15 -117 -27 -117 -14 0 13 30 26 53 23 9 -1 17
3 17 9 0 16 -30 24 -43 11 -6 -6 -18 -11 -26 -11 -9 0 -28 -6 -42 -14 -14 -7
-49 -16 -79 -20 -68 -9 -130 -40 -130 -65 0 -15 -13 -24 -52 -36 -29 -9 -63
-21 -75 -27 -24 -12 -30 -32 -13 -43 11 -7 173 29 233 51 20 8 51 14 67 14 17
0 30 5 30 10 0 13 -120 3 -134 -11 -15 -13 -26 -11 -26 6 0 9 9 15 24 15 14 0
28 5 31 10 3 6 26 10 50 10 25 0 62 6 82 14 35 13 84 27 108 31 6 1 34 5 63 9
29 5 55 13 58 17 7 11 -21 40 -30 32 -3 -4 -6 -1 -6 6 0 6 14 14 30 18 17 3
33 10 36 14 9 15 -61 10 -82 -6z m-184 -85 c-8 -5 -24 -9 -35 -9 l-20 0 20 9
c11 5 27 9 35 9 13 1 13 0 0 -9z"/>
<path d="M9106 1461 c-12 -19 6 -43 28 -36 11 4 39 9 61 12 59 6 71 11 57 25
-9 9 -22 8 -53 -2 -32 -11 -45 -11 -60 -2 -23 14 -26 15 -33 3z"/>
<path d="M9410 1433 c-32 -6 -51 -23 -24 -23 41 0 93 13 88 21 -5 9 -20 10
-64 2z"/>
<path d="M9263 1413 c-25 -10 -12 -23 22 -23 36 0 47 13 19 24 -18 7 -23 7
-41 -1z"/>
<path d="M9120 1390 c-8 -5 -30 -10 -47 -10 -18 0 -33 -5 -33 -10 0 -20 32
-23 66 -6 19 9 50 16 69 16 19 0 35 5 35 10 0 13 -70 13 -90 0z"/>
<path d="M8358 1357 c-32 -12 -38 -37 -10 -37 18 0 52 29 52 43 0 9 -8 8 -42
-6z"/>
<path d="M8418 1363 c7 -3 16 -2 19 1 4 3 -2 6 -13 5 -11 0 -14 -3 -6 -6z"/>
<path d="M8875 1346 c-62 -19 -61 -18 -47 -23 20 -8 143 7 137 17 -8 13 -58
16 -90 6z"/>
<path d="M9020 1080 c0 -5 9 -10 20 -10 11 0 20 5 20 10 0 6 -9 10 -20 10 -11
0 -20 -4 -20 -10z"/>
<path d="M7575 1070 c-11 -5 -51 -9 -89 -9 -70 -1 -136 -17 -136 -34 0 -5 17
-6 38 -3 72 10 250 18 271 11 11 -3 21 -12 21 -19 0 -35 42 -41 268 -37 56 0
92 5 92 11 0 7 -46 11 -132 10 -164 -1 -176 2 -170 41 4 29 4 29 -49 29 -30 0
-63 2 -74 5 -11 2 -29 0 -40 -5z"/>
<path d="M8950 1070 c0 -5 5 -10 10 -10 6 0 10 5 10 10 0 6 -4 10 -10 10 -5 0
-10 -4 -10 -10z"/>
<path d="M8693 1049 c-10 -3 -12 -8 -6 -12 13 -8 83 3 83 14 0 9 -50 8 -77 -2z"/>
<path d="M7158 1033 c-20 -5 -24 -23 -5 -23 6 0 23 3 35 7 18 4 20 8 10 14 -7
5 -15 8 -18 8 -3 -1 -13 -3 -22 -6z"/>
<path d="M7225 1031 c-3 -6 12 -10 35 -9 22 0 40 4 40 9 0 12 -67 12 -75 0z"/>
<path d="M8605 1030 c-3 -5 3 -10 14 -10 12 0 21 5 21 10 0 6 -6 10 -14 10 -8
0 -18 -4 -21 -10z"/>
<path d="M7038 1023 c-32 -8 -19 -23 21 -23 22 0 44 6 51 15 11 13 8 15 -21
14 -19 -1 -42 -3 -51 -6z"/>
<path d="M8435 1020 c-3 -5 -1 -10 4 -10 6 0 11 5 11 10 0 6 -2 10 -4 10 -3 0
-8 -4 -11 -10z"/>
<path d="M8480 1020 c0 -5 9 -10 19 -10 11 0 23 5 26 10 4 6 -5 10 -19 10 -14
0 -26 -4 -26 -10z"/>
<path d="M8307 1013 c-4 -3 -7 -10 -7 -14 0 -9 39 1 46 12 6 10 -29 12 -39 2z"/>
<path d="M8365 1010 c-3 -5 -2 -10 4 -10 5 0 13 5 16 10 3 6 2 10 -4 10 -5 0
-13 -4 -16 -10z"/>
<path d="M8110 1001 c-38 -5 -42 -8 -22 -14 30 -11 145 3 117 14 -22 9 -31 9
-95 0z"/>
<path d="M675 970 c-7 -11 39 -25 55 -15 5 3 8 11 5 16 -8 12 -52 12 -60 -1z"/>
<path d="M758 963 c7 -3 16 -2 19 1 4 3 -2 6 -13 5 -11 0 -14 -3 -6 -6z"/>
<path d="M800 966 c0 -8 51 -13 56 -5 3 5 -9 9 -25 9 -17 0 -31 -2 -31 -4z"/>
<path d="M880 960 c0 -5 6 -10 14 -10 8 0 18 5 21 10 3 6 -3 10 -14 10 -12 0
-21 -4 -21 -10z"/>
<path d="M940 960 c0 -5 18 -10 39 -10 22 0 43 5 46 10 4 6 -12 10 -39 10 -25
0 -46 -4 -46 -10z"/>
<path d="M1055 960 c-4 -6 10 -10 35 -10 25 0 39 4 35 10 -3 6 -19 10 -35 10
-16 0 -32 -4 -35 -10z"/>
<path d="M1140 960 c0 -12 112 -20 129 -10 9 5 14 10 11 11 -16 6 -140 5 -140
-1z"/>
<path d="M1326 960 c-15 -5 -16 -9 -7 -14 7 -5 18 -3 24 3 14 14 6 20 -17 11z"/>
<path d="M1378 953 c7 -3 16 -2 19 1 4 3 -2 6 -13 5 -11 0 -14 -3 -6 -6z"/>
<path d="M1440 950 c19 -13 30 -13 30 0 0 6 -10 10 -22 10 -19 0 -20 -2 -8
-10z"/>
<path d="M1542 935 c9 -10 118 -14 118 -4 0 5 -28 9 -62 9 -34 0 -59 -2 -56
-5z"/>
<path d="M1695 930 c3 -5 31 -10 61 -10 30 0 54 5 54 10 0 6 -27 10 -61 10
-37 0 -58 -4 -54 -10z"/>
<path d="M1840 930 c-13 -8 -12 -10 3 -10 9 0 17 5 17 10 0 12 -1 12 -20 0z"/>
<path d="M2050 926 c0 -17 23 -20 55 -6 23 10 22 10 -22 16 -25 4 -33 1 -33
-10z"/>
<path d="M2010 920 c19 -13 30 -13 30 0 0 6 -10 10 -22 10 -19 0 -20 -2 -8
-10z"/>
<path d="M2360 920 c0 -5 7 -10 16 -10 8 0 12 5 9 10 -3 6 -10 10 -16 10 -5 0
-9 -4 -9 -10z"/>
<path d="M2178 909 c-4 -12 -219 -18 -698 -18 -146 -1 -276 -1 -290 -1 -27 0
-54 -19 -30 -21 8 -1 443 -3 965 -5 983 -4 1414 -9 1500 -20 28 -3 154 -8 280
-11 334 -7 409 -9 420 -13 6 -2 18 0 27 4 9 4 143 6 297 4 219 -3 283 -1 297
9 22 16 57 14 -326 18 -179 2 -397 6 -485 11 -250 11 -287 12 -675 19 -498 8
-564 10 -578 19 -7 4 -18 4 -25 -1 -7 -5 -23 -8 -37 -7 -14 1 -30 -3 -37 -8
-8 -6 -21 -2 -41 12 -22 16 -36 20 -53 14 -36 -11 -79 -13 -85 -3 -9 16 -54
11 -48 -5 6 -16 -27 -17 -38 -1 -5 6 -8 5 -8 -2 0 -7 -9 -13 -21 -13 -15 0
-19 5 -15 15 4 11 -1 15 -17 15 -13 0 -27 -4 -32 -9 -16 -14 -95 -21 -95 -8 0
9 -2 9 -8 0 -9 -14 -122 -6 -122 8 0 13 -18 11 -22 -2z"/>
<path d="M713 883 c-45 -9 -21 -18 47 -18 39 0 70 3 70 8 0 4 -12 7 -27 7 -16
0 -37 2 -48 4 -11 2 -30 2 -42 -1z"/>
<path d="M851 881 c-7 -5 -9 -10 -5 -13 8 -4 159 -3 249 2 l40 2 -34 8 c-45
11 -233 12 -250 1z"/>
<path d="M495 870 c-8 -13 35 -13 55 0 11 7 7 10 -17 10 -17 0 -35 -4 -38 -10z"/>
<path d="M8990 760 c-30 -5 -85 -8 -122 -9 -37 -1 -97 -7 -135 -15 -37 -8
-165 -21 -283 -30 -118 -9 -249 -22 -290 -28 -41 -6 -102 -12 -135 -13 -33 -1
-87 -8 -120 -14 -33 -6 -88 -11 -122 -11 -35 0 -82 -4 -105 -10 -24 -5 -88
-14 -143 -20 -55 -5 -158 -17 -230 -26 -71 -9 -141 -17 -155 -19 -14 -1 -54
-7 -90 -13 -36 -6 -96 -14 -135 -17 -38 -3 -80 -8 -93 -11 -29 -6 -39 19 -22
51 16 31 7 52 -27 66 -15 6 -36 15 -45 20 -23 12 -48 12 -48 0 0 -5 12 -13 28
-19 15 -5 38 -18 51 -29 l23 -19 -27 -32 c-30 -36 -27 -67 8 -75 20 -5 143 5
227 18 19 4 103 17 185 31 83 13 197 28 255 34 138 12 246 26 312 39 29 5 107
13 173 16 140 8 158 10 330 30 229 28 231 28 289 11 45 -13 67 -14 123 -6 56
9 832 17 938 11 17 -2 44 -2 60 -1 34 1 156 -3 355 -14 186 -10 274 -14 500
-25 107 -6 218 -13 245 -17 28 -4 70 -8 95 -9 112 -4 286 -17 300 -22 8 -2 53
-7 100 -9 47 -3 130 -11 184 -19 116 -17 186 -19 186 -5 0 11 3 11 -65 16 -27
2 -81 9 -120 15 -38 6 -113 14 -165 19 -52 5 -122 13 -155 18 -33 6 -125 13
-204 17 -79 3 -151 10 -160 14 -9 5 -101 12 -206 15 -188 7 -278 12 -345 20
-83 9 -395 22 -838 32 -203 5 -262 10 -258 19 2 7 -1 18 -7 24 -12 12 -33 12
-117 1z"/>
<path d="M6415 709 c18 -5 33 -5 39 1 7 7 -4 10 -29 9 -40 -1 -40 -1 -10 -10z"/>
<path d="M6585 680 c3 -5 13 -10 21 -10 8 0 14 5 14 10 0 6 -9 10 -21 10 -11
0 -17 -4 -14 -10z"/>
<path d="M6643 673 c9 -2 23 -2 30 0 6 3 -1 5 -18 5 -16 0 -22 -2 -12 -5z"/>
<path d="M11646 541 c-7 -11 13 -17 89 -25 28 -2 59 -8 70 -12 19 -6 19 -6 4
10 -9 10 -35 19 -60 21 -24 1 -56 6 -70 10 -16 4 -30 2 -33 -4z"/>
</g>
</svg>
